<?xml version="1.0" standalone="no"?>
<!DOCTYPE svg PUBLIC "-//W3C//DTD SVG 1.1//EN" "http://www.w3.org/Graphics/SVG/1.1/DTD/svg11.dtd" >
<svg xmlns="http://www.w3.org/2000/svg">
<metadata>Generated by IcoMoon</metadata>
<defs>
<font id="Brand-Icons" horiz-adv-x="1024">
<font-face units-per-em="1024" ascent="960" descent="-64" />
<missing-glyph horiz-adv-x="1024" />
<glyph unicode="&#x20;" horiz-adv-x="512" d="" />
<glyph unicode="&#xe900;" glyph-name="px" horiz-adv-x="896" d="M206.6 250.067c-13 28.4-13.8 36.6 14.8 46.2 51.2 16 16-18.4 86.4-98.4h0.6v187.8c2.4 100.4 88 184.4 195.4 184.4 107.8 0 195.4-87 195.4-193.6 0-126.8-121.6-226.4-257-186.6-21 8.4-4.2 63.4 17 57.2 106 0 178.8 20.2 178.8 128.8 0 122-154.2 179.2-233.8 89.2-47-52.8-35.2-84.2-35.2-315.2 101.4-62 236.6-44 320.8 40.2 49.6 49.6 77 116 77 186 0 70.4-27.6 136.4-77.6 186.6-49.6 49.6-115.6 77-186.6 77s-137.6-27.6-187-77c-0.6-0.6-32-33-42.4-47.8l-1-1.2c-6.6-9.4-12.6-18.2-40.2-12.2-13.8 3.4-28.6 11.6-28.6 23.6v373.6c0 10 7.8 21 21 21h482.6c16.6 0 16.6-23.2 16.6-30.2 0-7.8 0-30.2-16.6-30.2h-446.4v-265.8h0.6c208.4 219.6 565.6 72 565.6-217.8 0-356.2-489.6-440.6-620.2-125.6zM333.2 771.667c-1-8.4 9.2-49 29.2-41.2 249.6 95 405.6-80.8 418.8-80.8 9.6 0 45.6 30.6 28.6 45.6-186.4 178-469 114-476.6 76.4zM786 109.267c-220-219.8-598-121.6-664 208.4 0 24.4-60.8 14.8-57.8-6.6 48-346.8 492-513.8 763.2-242.6 13.8 15.6-25.2 56.8-41.4 40.8zM427.2 325.467c0-8 8.6-14.6 11-17 6-6 12.2-8.8 17-8.8 7.6 0 5.2-0.4 44.6 39 39.2-38.6 38.2-39 44.6-39 10.8 0 37 20.8 21.4 36.4l-34.6 34.6 36.4 36.4c12.6 13.6-20.2 43.6-32.4 31.4l-35.8-35.8c-37.2 37.6-36.8 39-43 39-10 0-36-23.4-24.8-34.6l36.4-36.4c-36.2-35.8-40.8-38.4-40.8-45.2z" />
<glyph unicode="&#xe901;" glyph-name="accessible-icon" horiz-adv-x="896" d="M847.8 427.067l-25.8-314.6c-6.6-81.4-127.8-70.2-121.2 9.8l20 245-82.2-4.6c20.2-41.4 31.6-87.8 31.6-137 0-82.4-32.2-157.4-84.6-213l-78.6 78.6c115.8 127.4 26.2 334.4-148 334.4-51.8 0-99-19.8-134.4-52l-78.6 78.6c44 41.4 100.2 70.2 162.8 80.4l150.6 171.4-85.2 49.6-103.2-92c-60-53.6-141.2 37-81 90.8l136 121.4c19.6 17.6 48.2 20.4 71 7.2 0 0 278.6-161.8 279-162.2 32.4-20.2 41.4-72 12.2-105.2l-116.8-133 212.2 11.8c37 2.2 67.2-28.8 64.2-65.4zM718 735.067c56.2 0 101.8 45.6 101.8 101.8s-45.6 101.8-101.8 101.8c-56.2 0-101.8-45.6-101.8-101.8s45.6-101.8 101.8-101.8zM359.2 25.667c-161.2 0-254.8 181.2-165.4 312.2l-79.4 79.4c-41.6-52.6-66.4-119.2-66.4-191.4 0-261.4 301.4-402.8 502.8-245l-79.4 79.4c-32-21.8-70.6-34.6-112.2-34.6z" />
<glyph unicode="&#xe902;" glyph-name="accusoft" horiz-adv-x="1280" d="M964.4 194.467c-11.4 13.8-464.4 594.2-479.8 613.2-27.4 34.4 0 33.6 38.4 33.8 19.4 0.2 212.6 1.2 233 1.2 48.2 0.2 57.4-1.2 76.8-25.6 4.2-5.4 410.2-491.6 414.4-496.6 11-13.4 30.4-38.2 14.4-46.8-4.8-2.6-229.2-95.4-235.6-97.8-20.2-8-35-13.6-61.6 18.6zM1193.8 205.667s-230-100.8-235-103.2c-32-14.6-53.8 6.4-73.4 29.2l-114.2 148c-10.8 1.8-120.8 19.2-130.6 18.6-6.2-0.4-19.2-1.6-28.8-5.8-9.8-4.2-290.4-105.6-300.4-109.4-10.2-4-22.8-7.2-22.2-15.2 0.4-5 4-5.2 9.2-7 5.4-1.6 601.8-135.2 616-138.2 31.2-6.6 77-21 107.2-3.4 4.2 2.4 247.6 152.8 251.6 155.6 10.8 8 8.6 13.6-3.4 16.4-4.6 0.6-49.2 9.4-76 14.4zM541.8 568.267s-24-3.2-50-30.2c-18-18.6-484.2-478.2-486.8-481.8-14-20 3.2-13.6 31.4-3.4 1.6 0 229 73.2 229 73.2 1 1.2-0.2 0.2 1.2 1.2-0.8 10.2-1.6 52.4-2 55.4-1.2 10.4 4.4 13.8 14 17.8l185.2 67.6c1.2 1.6 177 163.4 180.4 166.6v2l-102.4 131.6z" />
<glyph unicode="&#xe903;" glyph-name="adn" horiz-adv-x="992" d="M496 603.667l129.8-197.6h-259.6l129.8 197.6zM992 426.667c0-273.8-222.2-496-496-496s-496 222.2-496 496 222.2 496 496 496 496-222.2 496-496zM792.4 261.267l-296.4 446.4-296.4-446.4h60.8l67.2 103.4h337.2l67.2-103.4h60.4z" />
<glyph unicode="&#xe904;" glyph-name="adversal" d="M964.2 874.667h-906.8c-45.8 0-57.4-11.8-57.4-57.8v-780.4c0-46.6 11.6-57.8 57.4-57.8h906.8c48.8 0 59.8 10.4 59.8 59.4v776.2c0 49.2-10.8 60.4-59.8 60.4zM356.8 498.067c-55 40.4-144.2 17.4-168.4-46.8-8.6-22.2-18.6-19-35-16.6-19.4 3-34.4 6.4-45 11-57.6 22.8 17.2 110.6 49.8 128.6 82.2 42.8 166.8 44.4 250.6 9.6 81.8-33.6 69-118.4 69-257 5.4-51.6-8.6-116.6 18.6-177.6 3.8-8.8 0.8-15.8-5.4-21.4-16.8-13.4-78.6-4.4-93.2 14.8-3.8 4.4-3.6 7.2-7.8 12.4-7.2 7.8-14.6 4.4-23.8-2-114.8-72.8-280.6-42.8-294 86.6-6.2 58.6 24.8 114.2 79.2 142 76.4 39 224.4 23.6 228 61.8 2.2 20.4-3.8 40.2-22.6 54.6zM930.2 54.067c0-30.2-22.2-19.8-35.6-19.8h-789.8c-14.8 0-36.4-9.6-35.6 21.4 0.8 27.8 21 18.2 34.2 18.2 264.6 0.8 529 0.8 793.6 0 13.6 0 33.2 8.8 33.2-19.8zM937.8 735.067v-582c0-11.4-1.4-27.8-16.2-27.8-24.8 0.8-55-14.2-72.2 11.2-11.6 17.4-15.6 8-24.8 2.4-106.8-59.4-256.2-14.2-288.8 170.4-12.2 66.8-1.4 134.2 31.4 200 23.6 47.8 113.8 152.2 272.2 61v142c0 52.4-0.2 52.4 52 52.4 6.2 0 13.2-0.8 19.4 0 20.2 1.6 27.2-8.8 27.2-28.6-0.2-0.4-0.2-0.6-0.2-1zM834.8 270.467c-39-95.2-145.8-86.6-180-10.4-30.2 66.6-31 136.4 0.8 203 32.6 68.2 119.4 71.4 163 9.6 41.2-57.6 29.8-169.2 16.2-202.2zM245.2 199.867c-15 2.6-66 6.6-67.4 55.6-0.8 27.8 15.6 46 39.6 51.6 48.8 11.8 98.6 19.8 147.4 29.4 17.8 4 14.8-8.8 15.6-19 2.8-66-52.2-118.4-135.2-117.6z" />
<glyph unicode="&#xe905;" glyph-name="affiliatetheme" d="M319.4 463.867c-102.6-141.8-233.2-221.6-291.4-178.4-58.4 43.4-22.4 193.2 80.4 335 102.6 141.8 233.2 221.6 291.4 178.4s22.2-193.2-80.4-335zM1021.8 578.467c-147.6-246.8-383.8-375.4-529-287.2-50 30.4-82.6 82.4-98 147.6-67.2-129.6-185.6-227.6-328.2-266.4 99.6-118.6 248.2-193.8 414-193.8 300 0 543.2 246.2 543.2 549.8 0.2 17-0.6 33.6-2 50z" />
<glyph unicode="&#xe906;" glyph-name="algolia" horiz-adv-x="896" d="M458.6 573.467c-98.6 0-178.4-79.8-178.4-178.4s79.8-178.4 178.4-178.4 178.4 79.8 178.4 178.4c0 98.6-80 178.4-178.4 178.4zM584 460.267l-117.8-61.2c-3.6-1.8-7.6 0.8-7.6 4.6v133c0 3 2.6 5.4 5.4 5.2 52.4-2 97.8-31.4 122.2-74.2 1.4-2.6 0.4-6-2.2-7.4zM778.2 874.667h-660.4c-65 0-117.8-52.8-117.8-117.8v-660.2c0-65.2 52.8-118 117.8-118h660.2c65.2 0 117.8 52.8 117.8 117.8v660.4c0.2 65-52.6 117.8-117.6 117.8zM373 705.267c0 21.6 17.4 39 39 39h90.6c21.6 0 39-17.4 39-39v-30.8c0-3.6-3.4-6-6.6-5-24.6 6.8-50.2 10.2-76.2 10.2-27 0-53.4-3.6-78.8-11-3.4-1-6.8 1.6-6.8 5v31.6zM204.2 631.267l18.4 18.4c15.2 15.2 39.8 15.2 55 0l15.4-15.4c2.2-2.2 2-6-0.6-8-12.4-9-24.2-18.8-35.2-29.8-10.8-10.8-20.8-22.6-29.6-34.8-2-2.6-5.8-3-8-0.6l-15.4 15.4c-15.2 15-15.2 39.6 0 54.8zM458.6 141.667c-140 0-253.2 113.4-253.2 253.2s113.4 253.2 253.2 253.2c140 0 253.2-113.2 253.2-253.2 0-139.6-113.4-253.2-253.2-253.2z" />
<glyph unicode="&#xe907;" glyph-name="amazon" horiz-adv-x="896" d="M514.4 613.267c-97.4-3.6-339-31-339-235 0-219 276.6-228 367-86.4 13-20.4 70.8-75 90.6-93.6l113.6 112s-64.6 50.6-64.6 105.6v294.2c0 50.6-49 164.6-224.6 164.6-176 0-269.4-110-269.4-208.6l147-13.6c32.6 99 108.4 99 108.4 99 81.4 0.2 71-59.6 71-138.2zM514.4 439.667c0-160-168.4-136-168.4-34.4 0 94.4 101 113.4 168.4 115.6v-81.2zM786.4 112.667c-15.4-20-140-134-349-134s-369 143-418 202c-13.6 15.4 2 22.6 11 16.6 146.6-89 375.6-235.6 745-60.6 15 7.4 26.6-4 11-24zM866 108.267c-13-31.6-32-53.6-42.4-62-11-9-19-5.4-13 7.6s38.6 93 25.4 110c-13 16.6-74 8.6-96 6.4-21.6-2-26-4-28 0.6-4.6 11.4 43.4 31 75 35 31.4 3.6 82 1.6 92-11.4 7.4-10.2 0-54.2-13-86.2z" />
<glyph unicode="&#xe908;" glyph-name="amazon-pay" horiz-adv-x="1222" d="M0 288.267c4.6 8.4 10.4 9.8 19.4 5 20.8-11.2 41.2-22.8 62.4-33.4 81.4-40.8 166.4-71.2 254.8-92.6 41.8-10 83.8-18 126.4-23.6 63-8.4 126.4-12 190-10.4 34.8 0.8 69.6 3.6 104.2 7.6 112.8 13.4 221.8 41.6 326.6 85.6 5.8 2.4 11.8 4 18.2 2.4 13.4-3.6 18-18 8.2-27.8-5.6-5.6-12.6-10.2-19.2-14.8-61.4-42.2-128.4-72.8-199.2-95.8-49.2-15.8-99.2-27.6-150.2-35.2-35.2-5.2-70.8-8.8-106.4-9.6-1.6 0-3.4-0.4-5-0.6h-42.2c-1.6 0.2-3.4 0.6-5 0.6-7.2 0.4-14.4 0.6-21.4 0.8-33.8 1.4-67.4 5.2-100.8 10.6-54.8 9-108.4 22.8-160.8 41.8-108.2 39.2-205.2 97.2-291.2 174-3.6 3.2-6 7.6-8.8 11.4v4zM316 808.667c-2.8-0.4-5.8-0.8-8.6-1.2-28-3.4-53.2-13.8-76-30.2-4.8-3.4-9.2-7-14.2-10.8-0.4 1-0.8 2-0.8 2.8-0.8 5.4-1.6 11-2.6 16.4-1.4 9.2-6 13.2-15.2 13.2h-23c-13.8 0-16.4-2.6-16.4-16.4v-418.6c0-2 0-4 0.2-6 0.4-6 4-9.8 9.8-10 14-0.2 28.2-0.2 42.2 0 5.8 0 9.4 4 10 10 0.2 2 0.2 4 0.2 6v144.8c2.2-1.8 3.4-2.8 4.4-3.8 35.8-29.8 77-39.6 122-30.8 40.8 8 69.2 33 87.6 69.8 14 27.8 19.8 57.4 20.6 88.2 1 34.2-2.4 67.8-16.2 99.6-17 39.2-45.2 65-87.8 73.8-6.4 1.4-13 2-19.6 3-5.6 0.2-11 0.2-16.6 0.2zM221.2 724.867c0 3 0.8 4.8 3.4 6.6 27.4 19 57.6 29 91.2 26.4 29.8-2.2 54.2-16.8 67-51.8 7.8-21.4 9.8-43.6 9.8-66 0-20.8-1.6-41.2-8-61.2-13.6-42.6-44.8-58.8-85.2-57-28 1.2-52.4 12-74.8 27.8-2.4 1.8-3.4 3.4-3.4 6.6 0.2 28.2 0 56.2 0 84.4 0 28 0.2 56 0 84.2zM632.6 808.667c-2-0.2-4-0.6-5.8-0.8-19.6-1-38.8-3.4-57.8-8.2-12.2-3.2-24-7.6-35.8-11.6-7.2-2.4-10.8-7.6-10.6-15.4 0.2-6.6-0.2-13.2 0-19.8 0.2-9.6 4.2-12.2 13.6-9.8 15.6 4 31.2 8.4 47 11.4 24.6 4.6 49.4 6.6 74.4 2.8 13-2 25.2-5.8 33.6-16.8 7.4-9.6 10.2-21 10.6-32.8 0.6-16.6 0.4-33.2 0.6-49.8 0-0.8-0.2-1.8-0.4-2.8-1 0.2-1.8 0-2.6 0.2-21 5-42.2 8.6-64 9.8-22.6 1.2-45-0.2-66.6-7.8-25.8-9-46.6-24.6-58.8-49.8-9.4-19.6-10.8-40.4-7.8-61.4 4-28 18-49.6 42.8-63.4 23.8-13.2 49.6-14.8 75.8-10.8 30.2 4.6 57 17.4 80.6 36.8 0.8 0.8 1.8 1.4 3.2 2.2 1.2-7.6 2.2-14.8 3.6-22 1.2-6.2 5-10.2 10.8-10.4 10.8-0.2 21.8-0.2 32.6 0 5.4 0.2 9 3.8 9.6 9.4 0.2 1.8 0.2 3.8 0.2 5.6v212c0 8.6-0.4 17.2-1.8 25.8-3.8 25.8-14.8 47-38 60.8-13.4 8-28.2 12-43.6 14.2-7.2 1-14.4 1.6-21.6 2.6-7.8-0.2-15.8-0.2-23.8-0.2zM702.6 553.267c0-2.6-0.8-4.4-3-6-22.4-16.2-47-27-74.8-29.8-11.4-1.2-22.8-0.8-33.6 3.6-12.6 5-20.8 13.8-24.8 26.6s-4 26-0.2 38.8c5 16.6 16.8 26 32.8 31.2 16.2 5.2 33 6 49.6 4.4 16.8-1.4 33.2-4.6 50-6.8 3.2-0.4 4.2-2 4.2-5.2-0.2-9.6 0-19 0-28.6-0.2-9.4-0.4-18.8-0.2-28.2zM1222.4 294.467c-2 10-9.6 13.8-18.2 16.6-13.6 4.6-27.8 6.6-42 7.8-26.2 2.2-52.4 1-78.4-3.8-28.6-5.4-55.8-14.6-80-31.2-2.8-2-5.6-4.2-7.4-7-1.4-2.2-1.8-5.6-1-8 0.8-3 4.2-3.8 7.2-3.6 1.4 0 3 0 4.4 0.2 15.6 1.6 31 3.4 46.6 5 22.8 2.2 45.8 3.6 68.6 1.8 9.6-0.6 19.4-2.8 28.8-5.4 10.2-2.8 14.8-10.4 15.2-20.8 0.8-16-2.8-31.4-7-46.6-8.2-30.8-20-60.6-31.6-90.2-0.8-2-1.6-4-2-6-1-5.8 2.4-9.6 8.2-8.2 3.4 0.8 7.2 2.6 9.6 5 8.8 8.6 17.8 17.2 25.4 26.8 25.6 32.8 40.6 70.6 49.4 111.2 1.6 7.2 2.8 14.6 4.2 21.8v34.6zM958.2 540.867c-25.8 71.4-51.6 143-77.4 214.4-4 11.4-8.4 22.6-12.6 33.8-2.2 5.8-6.4 9.6-12.8 9.6-15.2 0.2-30.4 0.4-45.8 0.2-5 0-7.4-4-6.4-9 1-4.2 2.2-8.2 3.8-12.2 39.2-97 78.6-194.2 118.2-291 3.4-8.2 4.2-15.2 0.4-23.6-6.6-14.6-11.8-30-18.6-44.6-6-13-16-22.8-30.4-26.6-10.2-2.8-20.4-3.2-30.8-2.2-5 0.4-10 1.6-15 2-6.8 0.4-10.2-2.6-10.4-9.6-0.2-6.6-0.2-13.2 0-19.8 0.2-11 4-16 14.8-17.8 11.2-2 22.6-3.8 33.8-4 34.2-0.8 61.4 13 79 42.8 7 11.8 13.4 24.2 18.4 36.8 47.4 119.6 94.2 239.4 141.2 359.2 1.4 3.6 2.6 7.2 3.2 11 0.8 5.6-1.8 8.8-7.4 8.8-13.2 0.2-26.6 0-39.8 0-7.4 0-12.6-3.2-15.4-10.4-1-2.8-2.2-5.4-3.2-8.2-23.2-66.6-46.4-133.2-69.6-200-5-14.4-10.2-29-15.4-44.4-0.8 2.2-1.2 3.4-1.8 4.8z" />
<glyph unicode="&#xe909;" glyph-name="amilia" horiz-adv-x="896" d="M480.2 874.667c-123.8 0-263-33.8-368.4-110.8-10.2-6.2-18.2-18.4-14.4-38.8 2.2-10.2 10.2-54.8 20.4-79.2 8.2-20.4 28.4-20.4 40.6-12.2 65 44.6 193 95.4 304.6 95.4 115.8 0 117.8-56.8 117.8-146.2v-77c-174.8-22.6-424.4-69.2-487.4-95.6-71-32.6-60.8-187-60.8-223.6s30.4-208 249.8-208c95.6 0 227.4 41.4 306.6 84.2v-50.8c0-6 4.2-16.4 12.2-18.2 6.2-2 101.4-4 119.8-4s125-0.6 133 1.4c8.2 2 10.2 12.2 10.2 18.2v593.2c-0.2 160.6-115.8 272-384 272zM304.4 219.267c0 24.4-6 85.4 36.6 105.8 48.6 26.4 150.2 58.8 239.6 67v-213.4c-42.8-26.4-97.4-48.8-158.2-48.8-105.6 0-117.8 67-118 89.4z" />
<glyph unicode="&#xe90a;" glyph-name="android" horiz-adv-x="896" d="M179.2 529.667v-231.6c0-30.8-24.2-55.4-55-55.4-30.6 0-60.2 24.8-60.2 55.4v231.6c0 30.2 29.6 55 60.2 55 30.2 0 55-24.8 55-55zM200.8 215.667c0-32.8 26.4-59.2 59.2-59.2h39.8l0.6-122.2c0-73.8 110.4-73.2 110.4 0v122.2h74.4v-122.2c0-73.4 111-73.6 111 0v122.2h40.4c32.4 0 58.8 26.4 58.8 59.2v358.8h-494.6v-358.8zM696.8 593.867h-498.2c0 85.6 51.2 160 127.2 198.8l-38.2 70.6c-5.6 9.8 8.6 16 13.4 7.6l38.8-71.2c69.8 31 150 29.4 216.6 0l38.6 71c5 8.6 19 2.2 13.4-7.6l-38.2-70.4c75.4-38.8 126.6-113.2 126.6-198.8zM355.4 704.867c0 11.4-9.2 21-21 21-11.4 0-20.4-9.6-20.4-21s9.2-21 20.4-21c11.8 0 21 9.6 21 21zM582.2 704.867c0 11.4-9.2 21-20.4 21-11.8 0-21-9.6-21-21s9.2-21 21-21c11.2 0 20.4 9.6 20.4 21zM771.8 584.667c-30.2 0-55-24.2-55-55v-231.6c0-30.8 24.8-55.4 55-55.4 30.8 0 60.2 24.8 60.2 55.4v231.6c0 30.8-29.6 55-60.2 55z" />
<glyph unicode="&#xe90b;" glyph-name="angellist" horiz-adv-x="896" d="M694.2 507.867c23.4 65.2 90.8 253.8 90.8 314.2 0 53.2-31.4 97.8-87.4 97.8-89.2 0-169.2-263.4-194.2-326.2-19.4 57-110.2 345-190.2 345-62.2 0-91.4-45.8-91.4-103.4 0-70.6 68.4-253.6 93.2-324-12.6 4.6-26.2 8.6-40 8.6-46.8 0-96.6-58.2-96.6-105.2 0-17.8 9.8-42.8 16-59.4-73.8-20-102.2-69.2-102.2-143.4-0.2-144.4 136.6-297.2 329-297.2 236 0 382.8 177.2 382.8 405.8 0 86.2-13.8 164-109.8 187.4zM623.4 722.667c8 24.6 42.2 128.6 74.2 128.6 17.2 0 21.8-17.8 21.8-32 0-38.2-77.2-249.2-94.2-296l-68 12 66.2 187.4zM284.6 842.067c0 23.8 29 91.4 92.6-94.2l69.2-200.6c-31.2 2.6-55.4 6-70.8-2.8-21.8 57.6-91 239.4-91 297.6zM280 450.667c58.6 0 134.2-189.2 134.2-214.8 0-10.2-9.8-22.8-21.2-22.8-41.8 0-153.8 153.8-153.8 195.4 0.2 15.4 25.4 42.2 40.8 42.2zM648.6 78.067c-58.2-64-132.6-97.2-219.4-97.2-118.8 0-212.6 65.2-257.8 176.6-34.2 86.8 7.6 136.6 41.2 136.6 22.8 0 108.6-120.6 108.6-146.2 0-9.8-15.4-16.6-23.4-16.6-32.2 0-44.8 31-102.2 102.8-59.4-59.4 41-173.8 116.6-173.8 52.2 0 86.2 48.4 76 84 7.4 0 16.6-0.6 23.4 1.2 2.2-54.2 18.2-118.8 83.4-123.4 0 1.8 4 14.2 4 14.8 0 34.8-21.2 65.2-21.2 100.6 0 56.6 43.4 111.4 87.4 143.4 16 12 35.4 19.4 54.2 26.2 19.4 7.4 40 16 54.8 30.8-2.2 22.4-11.4 42.2-33.8 42.2-55.4 0-241.2-8-241.2 79.4 0 13.4 0.2 26.2 34.8 26.2 64.6 0 228.6-16 276.6-58.2 36.2-32.2 48.6-226.4-62-349.4zM451.4 330.067c19.4-6.2 39.4-8 59.4-12-14.8-10.8-28-24-40.6-38.2-5.6 17-12.4 33.6-18.8 50.2z" />
<glyph unicode="&#xe90c;" glyph-name="angrycreative" horiz-adv-x="1280" d="M1280 462.267l-6.4-56.4-69-4.6-4-36.2 69 4.6-6.4-56.4-68.8-4.4-4.6-40.2 68.8 4.4-6-52.2-129.4-8.2 25.4 226.4-94.6-230.8-63.8-4-47.6 235.6 60.6 4 27.2-158.8 63.4 164.8 186.2 12.4zM853.6 195.667l56.6 3.6 25.8 240.2-56.8-3.8-25.6-240zM324 162.467l-38.8 72-7-74.8-56.4-3.4 5.4 58.2c-22-36-64-68.6-113.8-71.6-65.6-4-119.4 41.8-112.8 116.4 5.2 58.6 53.4 125.6 135 130.8 75.4 4.8 95.2-46.4 102.6-57.6l5.6 61.6 77.8 5c40.2 2.6 77.4-7.4 85-47.4l5.2 53.2 129.6 8.4-5.4-55.8-72.8-4.8-3.4-35.8 72.8 4.6-5.4-55.8-72.8-4.6-3.8-39.8 72.6 4.6-4.2-41.6 110 234.4 47.6 3.2 64.2-221.2 17.8 171.2-44.6-2.8 5.8 55.8 150 9.8-6-56-48.6-3.2-19.4-183.8-116-7.4-8.6 31.2-78.8-5-16-32.6-252.4-15.4zM235.4 302.867l-52.8-3.4c-13.4 24.8-28.8 33.2-52.6 31.6-38-2.4-66.6-35-69.2-66.6-2.8-32 14.6-65 57.4-62.4 25.6 1.6 42.6 17.2 57.8 37.8l54 3.4 5.4 59.6zM347.6 318.267c2.4 25.8-15.2 27.2-52.2 24.8l-5.4-57c28.4 1.8 55 4.2 57.6 32.2zM389.8 176.667l11.6 120c-10-27-29.4-42.2-55.8-53.2l44.2-66.8zM660.6 266.667l-15.8 75.6-31.6-78.6 47.4 3zM320.4 415.867l-8.6 35-79.2-5.2-16.2-36.4-63.8-4.2 114 243.8 47.8 3.2 61.4-204 19.8 209.4 54 3.6 75.6-127.2 13 133.2 57 3.8-8-82.4c14.8 27 45.8 89.4 127.2 95 81 5.6 104.8-58.6 106.8-60.6l6.6 64 78.6 5.4c25.4 1.8 55.6-0.6 72.6-19.4l-8.8 23.8 64.4 4.4 25.8-86.4 46 91.4 62 4.4-87.2-156.8-9.6-88.6-56.8-3.8 9.6 88.6-31.6 86c2-44.6-18.4-80.2-64-99.2l50.4-77.6-72.8-4.8-38.4 73.6-8-76.6-56.8-3.8 6.6 63c-13.4-18.6-39.4-70.8-119.2-76-52.4-3.4-91.2 20.6-110.8 78.4l-8-80.6-50-3.2-75.2 126.6-12.6-132.4-113.6-7.4zM873.6 580.067c20.4 1.4 35 4.2 43.2 8.6 9 4.8 14 12.8 15.2 24.2 1.2 10.6-1.2 17.6-6.8 20.8-7.2 4.2-21.2 5.6-45.8 4l-5.8-57.6zM655.4 510.667c11.2-11.8 25.4-17 42.6-15.8 9.4 0.6 18.2 3.6 26.6 8.2 11 6 21.2 16 30.2 28.6l-68.4-4.6 4.8 47.8 126.2 8.6 2.4 24-62.4-4.2c-8.2 7.4-15.6 13.2-22.2 16.2-8 3.4-16.2 5.6-24.4 5-16-1-30.6-7.2-44-18.4-15.4-12.8-24-29-25.8-48.8-2.2-19.2 2.8-34.6 14.4-46.6zM252.8 494.267l47.6 3.2-16.6 75.2-31-78.4z" />
<glyph unicode="&#xe90d;" glyph-name="angular" horiz-adv-x="831" d="M339.4 402.467h152.4l-76.2 183.2-76.2-183.2zM415.6 874.667l-415.6-148.8 63.6-551.4 352-195.8 352 195.8 63.6 551.4-415.6 148.8zM676 191.067h-97.2l-52.4 130.8h-221.2l-52.4-130.8h-97.4l260.2 584.6 260.4-584.6z" />
<glyph unicode="&#xe90e;" glyph-name="apper" horiz-adv-x="1280" d="M84.2 460.467c44.4 0 58-5.6 67-29.2h1.6v45.8c0 22.6-9.6 30.8-35.8 30.8-22.6 0-28.8-5-30.2-25.6h-77.2c0.6 27.8 3 38.2 11.6 48.8 14.6 17.6 37.8 23.6 92.2 23.6 66 0 94.2-10 107.8-37.8 4-8.6 8-31.2 8-47.4v-152.6h-76.6l2.6 38.2h-2c-10.6-31.2-27.2-40.8-71-40.8-60.6 0-82.2 20.2-82.2 74.6 0 50.4 24.6 71.6 84.2 71.6zM118.4 364.267c26.2 0 33.8 6 33.8 26.8 0 18.2-8.6 23.2-39.2 23.2-26.2 0-35.8-6-35.8-24.2-0.2-20.8 7.4-25.8 41.2-25.8zM274 554.067h76.6l-3-41.2h1.6c18.2 34.2 31.8 41.8 75 41.8 28.8 0 49.4-6 63-18.2 19.6-17.2 25.6-40.8 25.6-96.2 0-60-6-86.2-24.2-105.8-13.6-14.6-32.8-20.2-66.4-20.2-40.8 0-58.4 11-67.6 42.4h-1.6v-140.6h-79v338zM435.8 432.667c0 55-6.6 65-41.4 65-33.8 0-41.4-10-41.4-57.4 0-56 7-67 42.4-67 32.8 0 40.4 11.2 40.4 59.4zM551.6 554.067h76.6l-3-41.2h1.6c18.2 34.2 31.8 41.8 75 41.8 28.8 0 49.4-6 63-18.2 19.6-17.2 25.6-40.8 25.6-96.2 0-60-6-86.2-24.2-105.8-13.6-14.6-32.8-20.2-66.6-20.2-40.8 0-58.4 11-67.6 42.4h-1.6v-140.6h-79v338zM713.4 432.667c0 55-6.6 65-41.4 65-33.8 0-41.4-10-41.4-57.4 0-56 7-67 42.4-67 32.8 0 40.4 11.2 40.4 59.4zM821 440.267c0 50.8 6.6 75.6 24.6 91.6 17.6 16.2 44.4 22.6 90.2 22.6 85.6 0 111.4-25.6 111.4-111.4v-22.2h-150.6c-0.6-4-0.6-8-0.6-9.6 0-33.8 9-43.8 40.2-43.8 27.8 0 35.8 6 35.8 27.8h75v-4.6c0-19.6-5-37.8-13.6-49.4-14.6-19.6-39.2-27.2-88.6-27.2-55 0-83.2 6.6-101.2 24.6-17 17-22.6 42.6-22.6 101.6zM973.8 463.467c-0.6 3.6-0.6 6.6-0.6 7.6 0 24.6-6.6 29.2-39.2 29.2-28.8 0-34.2-6-36.2-30.2l-0.6-6.6h76.6zM1085 554.067h76.6l-3.6-39.8h1.4c13.6 29.8 28.8 40.4 59.4 40.4 21.6 0 38.2-6.6 46.8-18.6 10.6-14.6 13.6-28.8 13.6-68 0-3 0-10 0.4-18.6h-70c0.6 3.6 0.6 6.6 0.6 8 0 30.8-4 38.8-20.6 38.8-12.6 0-21.6-6.6-26.2-18.6-2-6-2-8.6-2-24.6v-136h-76.6v237z" />
<glyph unicode="&#xe90f;" glyph-name="apple" horiz-adv-x="753" d="M629.4 401.267c-0.4 73.4 32.8 128.8 100 169.6-37.6 53.8-94.4 83.4-169.4 89.2-71 5.6-148.6-41.4-177-41.4-30 0-98.8 39.4-152.8 39.4-111.6-1.8-230.2-89-230.2-266.4 0-52.4 9.6-106.6 28.8-162.4 25.6-73.4 118-253.4 214.4-250.4 50.4 1.2 86 35.8 151.6 35.8 63.6 0 96.6-35.8 152.8-35.8 97.2 1.4 180.8 165 205.2 238.6-130.4 61.4-123.4 180-123.4 183.8zM516.2 729.667c54.6 64.8 49.6 123.8 48 145-48.2-2.8-104-32.8-135.8-69.8-35-39.6-55.6-88.6-51.2-143.8 52.2-4 99.8 22.8 139 68.6z" />
<glyph unicode="&#xe910;" glyph-name="apple-pay" horiz-adv-x="1280" d="M233.8 621.667c-15-17.8-39-31.8-63-29.8-3 24 8.8 49.6 22.6 65.2 15 18.2 41.2 31.2 62.6 32.2 2.4-24.8-7.4-49.4-22.2-67.6zM255.6 587.267c-34.8 2-64.6-19.8-81-19.8-16.8 0-42 18.8-69.6 18.2-35.8-0.6-69-20.8-87.2-53-37.6-64.6-9.8-160 26.6-212.6 17.8-26 39-54.6 67-53.6 26.6 1 37 17.2 69 17.2 32.2 0 41.6-17.2 69.6-16.8 29 0.6 47.2 26 65 52 20.2 29.6 28.6 58.2 29 59.8-0.6 0.6-56 21.8-56.6 85.8-0.6 53.6 43.8 79 45.8 80.6-25 37.2-64 41.2-77.6 42.2zM456.4 659.667v-389.8h60.6v133.2h83.8c76.6 0 130.2 52.6 130.2 128.6s-52.8 128-128.2 128h-146.4zM517 608.667h69.8c52.6 0 82.6-28 82.6-77.2s-30-77.6-82.8-77.6h-69.6v154.8zM841.4 266.867c38 0 73.2 19.2 89.2 49.8h1.2v-46.8h56v194c0 56.2-45 92.6-114.2 92.6-64.2 0-111.8-36.8-113.6-87.2h54.6c4.6 24 26.8 39.8 57.2 39.8 37 0 57.8-17.2 57.8-49v-21.6l-75.6-4.6c-70.2-4.2-108.2-33-108.2-83 0.2-50.4 39.4-84 95.6-84zM857.8 313.067c-32.2 0-52.8 15.6-52.8 39.2 0 24.6 19.8 38.8 57.6 41l67.2 4.2v-22c0-36.4-31-62.4-72-62.4zM1062.8 163.867c59 0 86.8 22.6 111 90.8l106.2 298h-61.6l-71.2-230.2h-1.2l-71.2 230.2h-63.2l102.4-283.8-5.6-17.2c-9.2-29.2-24.2-40.6-51-40.6-4.8 0-14 0.6-17.8 1v-46.8c3.6-0.8 18.6-1.4 23.2-1.4z" />
<glyph unicode="&#xe911;" glyph-name="app-store" d="M511.8 696.867l18.2 31.4c11.2 19.6 36.2 26.2 55.8 15s26.2-36.2 15-55.8l-175-303h126.6c41 0 64-48.2 46.2-81.6h-371c-22.6 0-40.8 18.2-40.8 40.8s18.2 40.8 40.8 40.8h104l133.2 230.8-41.6 72.2c-11.2 19.6-4.6 44.4 15 55.8 19.6 11.2 44.4 4.6 55.8-15l17.8-31.4zM354.4 260.867l-39.2-68c-11.2-19.6-36.2-26.2-55.8-15s-26.2 36.2-15 55.8l29.2 50.4c32.8 10.2 59.6 2.4 80.8-23.2zM692.2 384.267h106.2c22.6 0 40.8-18.2 40.8-40.8s-18.2-40.8-40.8-40.8h-59l39.8-69c11.2-19.6 4.6-44.4-15-55.8-19.6-11.2-44.4-4.6-55.8 15-67 116.2-117.4 203.2-150.8 261.2-34.2 59-9.8 118.2 14.4 138.2 26.8-46 66.8-115.4 120.2-208zM512 922.667c-274 0-496-222-496-496s222-496 496-496 496 222 496 496-222 496-496 496zM944 426.667c0-237.4-192.2-432-432-432-237.4 0-432 192.2-432 432 0 237.4 192.2 432 432 432 237.4 0 432-192.2 432-432z" />
<glyph unicode="&#xe912;" glyph-name="app-store-ios" horiz-adv-x="896" d="M800 874.667h-704c-53 0-96-43-96-96v-704c0-53 43-96 96-96h704c53 0 96 43 96 96v704c0 53-43 96-96 96zM254 169.667c-11-19.2-35.6-25.6-54.6-14.6-19.2 11-25.6 35.6-14.6 54.6l28.6 49.4c32.2 9.8 58.6 2.2 79.2-22.8l-38.6-66.6zM531.8 277.467h-363.8c-22 0-40 18-40 40s18 40 40 40h102l130.8 226.4-41 70.8c-11 19.2-4.4 43.6 14.6 54.6 19.2 11 43.6 4.4 54.6-14.6l17.8-30.8 17.8 30.8c11 19.2 35.6 25.6 54.6 14.6 19.2-11 25.6-35.6 14.6-54.6l-171.6-297.2h124.2c40.4 0 63-47.4 45.4-80zM728 277.467h-58l39.2-67.8c11-19.2 4.4-43.6-14.6-54.6-19.2-11-43.6-4.4-54.6 14.6-65.8 113.8-115 199.4-148 256.2-33.4 58-9.6 116 14.2 135.6 26.2-45.4 65.4-113.4 117.8-204h104c22 0 40-18 40-40 0-22.2-18-40-40-40z" />
<glyph unicode="&#xe913;" glyph-name="asymmetrik" horiz-adv-x="1152" d="M1035 320.267c77.6 80 116.2 160 117 232.2 1.6 131-118.8 236.4-338.8 270-257.4 39.4-577-31-813.2-164.8 104 53 221.2 96.4 341.4 116.4 149 41 306 50.8 442.6 29.6 305-47.6 393.6-255 197.6-463.4-20.4-21.6-44-42.2-70-61.2l-301.8 452.8-380.4-571c-131.2 58.8-153 180.4-38.2 302.4 41.6 44.4 96.6 83.8 159 116.2 40 24.4 79.4 45.2 124 61.4-130.2-40.6-245.4-105.8-323.2-185.8-55.4-57.2-82.8-114.2-83.4-165.8-1-70.2 46.8-130.2 136.8-166l-69-103.4h203.2l44 68.8c44.4-2 90.6 0 137.2 5.4l-45.6-74.2h271l-65.2 106.2c37.2 10.6 73.8 23 109 37.4l91.8-143.6h203.2l-146.8 220.8c37 24.2 70 51 97.8 79.6zM659.8 159.267l-50 81.2-65.4-106.6c-46.8-7-93.4-10.2-138.4-8.8l203.8 318.6 157.4-246c-34.4-14.8-70.6-27.8-107.4-38.4z" />
<glyph unicode="&#xe914;" glyph-name="audible" horiz-adv-x="1280" d="M1280 538.867v-108l-640-400-640 399.8v108l640-400 640 400.2zM891 394.867l94.2 58.8c-74.4 111.6-201.4 185.2-345.4 185.2s-271-73.4-345.2-184.8h0.6c5 4.6 10.2 9 15.4 13.4 179.4 148.8 438.8 116.2 580.4-72.6zM450.8 357.267c33.8 23.8 73 37.4 114.8 37.4 68.8 0 130.4-36.8 172.8-95.2l90.8 56.8c-41.8 59.8-111.2 99-189.6 99-77.8 0-146.8-38.8-188.8-98zM207.2 616.467c263.6 208.6 636.4 152.8 835-124.2l1.4-2 97.6 60.8c-107 163.4-291.6 271.4-501.4 271.4-207 0-393.2-107-501-271.2 19.8 21 45.4 47 68.4 65.2z" />
<glyph unicode="&#xe915;" glyph-name="autoprefixer" horiz-adv-x="1280" d="M636.8 906.667l-322-960h155l50.8 162.8h239l50.4-162.8h155l-328.2 960zM556.2 222.867l82.4 260.8h3l81.8-260.8h-167.2zM1280 128.667l-20 62.8-335.8 31.2 38.8-113 317 19zM355.8 222.667l-335.8-31.4-20-62.6 317-18.8 38.8 112.8z" />
<glyph unicode="&#xe916;" glyph-name="avianex" d="M906.2 874.667h-624c-77.8 0-152.4-62.4-166.6-139.4l-113.2-617.2c-14.2-77 37.4-139.4 115.4-139.4h624c77.8 0 152.4 62.4 166.6 139.4l113.4 617c14 77.2-37.6 139.6-115.6 139.6zM789.8 180.067l-64-27-230.8 220c-29.4-20-58.4-39-83.4-54.2l44.2-128.4-35.8-25.4-81.2 122-104.8 96.2 31.4 30.8 116-62.2c18.6 21 41.6 45.2 65.6 69.8l-41 59.2-137.6 199.6 37.6 57.8 17.8 9.6 206.2-224.8 9.8-9c38.8 37.6 67.6 64.8 67.6 64.8 15.4 13 43 5.8 61.4-15.8 18-21 21.2-49.4 5.4-62.6-3.6-2.6-31-22.8-70.6-51.2l9-14.6 189.8-238.8-12.6-15.8z" />
<glyph unicode="&#xe917;" glyph-name="aviato" horiz-adv-x="1280" d="M214.4 371.667l-38 83.6h-104.2l-38-83.6h-34.2l124.4 262.8 124.4-262.8h-34.4zM124.4 567.867l-39.2-85h78.4l-39.2 85zM349.8 363.067l-124.4 262.8h34.2l90.2-192 90.2 192h34l-124.2-262.8zM511 371.667v254.2h31v-254.2h-31zM929.2 602.867v-231.2h-34.6v231.2h-82.4v23h199.2v-23h-82.2zM1280 501.067c0-18.4-3.4-35.6-10.2-51.6s-16.4-30.2-28.4-42.2c-12-12-26.2-21.6-42.2-28.4s-33.2-10.2-51.6-10.2-35.6 3.4-51.6 10.2c-16 6.8-30.2 16.4-42.2 28.4s-21.6 26-28.4 42.2c-6.8 16-10.2 33.2-10.2 51.6s3.4 35.6 10.2 51.6c6.8 16 16.4 30.2 28.4 42.2s26 16.8 42.2 23.8c16 6.8 33.2 10.2 51.6 10.2s35.6-3.4 51.6-10.2c16-6.8 30.2-11.6 42.2-23.8 12-12 21.4-26.2 28.4-42.2 6.8-16 10.2-33.2 10.2-51.6zM1249 501.067c0 14.6-2.6 28-7.8 40.6s-12.4 23.4-21.6 32.6c-9.2 9.2-20 16.4-32.4 21.8s-25.6 8-39.6 8-27.2-2.6-39.6-8c-12.4-5.4-23.2-12.6-32.4-21.8s-16.4-20-21.6-32.6c-5.2-12.6-7.8-26.2-7.8-40.6 0-14.6 2.6-28 7.8-40.6s12.4-23.4 21.6-32.6c9.2-9.2 20-16.4 32.4-21.8s25.6-8 39.6-8 27.2 2.6 39.6 8c12.4 5.4 23.2 12.6 32.4 21.8s16.4 20 21.6 32.6c5.2 12.6 7.8 26.2 7.8 40.6zM1059.4 307.667v12.6l177.8 20-485.8-26.8c1.2 4.4 2.2 9.2 2.8 14.4 0.6 4 1 8.4 1.2 13l129.6 16.2-129.8-3.8c0 0.8-0.2 1.4-0.2 2.2-5.6 34.4-51 47.4-51 47.4l-2.2 52.6h47.6l38-83.6h34.2l-124.4 262.8-124.4-262.8h34.2l38 83.6h47.2l-2.2-52.8s-45.4-13-51-47.4c-0.2-0.6-0.2-1.4-0.2-2.2l-129.8 3.8 129.6-16.2c0.2-4.6 0.6-8.8 1.2-13 0.6-5.2 1.6-10 2.8-14.4l-485.8 27 177.8-20v-12.6c-11.8-1.8-21-12-21-24.4 0-13.6 11.2-24.8 24.8-24.8s24.8 11.2 24.8 24.8c0 12.4-9.2 22.6-21 24.4v11.6l160.6-18v-10.8c-11.4-2.2-19.8-12.4-19.8-24.2 0-13.6 11.2-20.4 24.8-20.4s24.8 6.8 24.8 20.4c0 12-8.6 22-19.8 24.2v9.8l56.8-6.4v-47.4h-11.8v-27.8h11.8v13.2h10v-13.2h11.8v27.6h-11.8v46.4l76.6-8.6c16.2-22.8 38-27.2 38-27.2l-0.2-13.4-10.2-0.4-0.2-24.2h8.2l0.2 10h10.4l0.2-10h8.2l-0.2 24.2-10.2 0.4-0.2 13.4s21.8 4.2 38 27.2l76.6 8.6v-46.4h-11.8v-27.6h11.8v13.2h10v-13.2h11.8v27.6h-11.8v47.4l56.8 6.4v-9.8c-11.4-2.2-19.8-12.4-19.8-24.2 0-13.6 11.2-20.4 24.8-20.4s24.8 6.8 24.8 20.4c0 12-8.6 22-19.8 24.2v10.8l160.6 18v-11.6c-11.8-1.8-21-12-21-24.4 0-13.6 11.2-24.8 24.8-24.8s24.8 11.2 24.8 24.8c-0.4 12.6-9.4 22.8-21.4 24.6zM657.8 482.867l39.2 85 39.2-85h-35.8l-3.4 80.6-3.4-80.6h-35.8z" />
<glyph unicode="&#xe918;" glyph-name="aws" d="M522.4 666.467c-28-115-26.2-108.8-51.6-214-3.2-13-8.2-16.8-21.4-17h-28.8c-11.6 0.2-16.4 3.2-19.8 14.6-24.6 78.8-57.6 188.2-79.8 261.4-8.2 27-2.8 26.4 18.6 25.8 7.4-0.2 14.6 0 22 0 10.2-0.2 15.4-4 18.2-14.2 7.2-25.8 12-45.6 53.2-208.2 0.8-3.2 1.8-6.2 2.8-9.2h2.2c1 4 2.2 7.8 3.2 11.8 15.6 65.8 31 131.8 46.6 197.6 4.8 20.4 13.4 22.4 34 22.4h15.2c13.8-0.2 18-3 21.4-16.6 12-46.8 47-203.6 53.4-220.8 10.2 36.6-3.6-15.8 57 218 4.2 16.2 8.2 19.4 24.6 19.4h25.4c10.8-0.2 14-3.6 11.4-14.2-4.8-19-5.8-19.8-82.6-265.8-6.2-19.8-8.4-21.6-29.2-21.6h-21.2c-14.6 0-18.4 2.6-22 16.8-8.6 32.4-46.6 191.4-52.8 213.8zM250.8 444.067c8.4-11.6 16.2-12.6 28.2-4.8l12.6 8.4c13.6 9 14.6 12.6 7.2 27-8.6 16.8-12.8 34.6-12.6 53.8 0 6.2 1.2 111.4-1.8 133.6-5.4 38.6-25 65.6-63.4 77.4-21.4 6.8-43.4 6.6-65.4 6-30.2-0.8-58.8-9.2-85.6-22.8-3.6-1.8-7.4-6.2-8.2-9.8-1.6-7.8-2.2-16.2-1.4-24.2 1.2-11.8 5.2-14 16.4-10.2 10.2 3.4 20 7.8 30.2 10.8 29 8.8 58.4 12.8 88.2 3.4 14.2-4.4 23.4-13.8 28.6-27.6 6-15.8 4.8-32.2 4.8-48.4 0-11-0.2-11-11-9-27.8 5.2-55.4 10-83.8 6.2-30.4-4.2-57.2-14.6-76.4-40-18.2-24-20-51.2-14.8-79 5.6-30 23.6-51.4 52.8-60.8 41.2-13.4 80.2-6.6 115.4 19 7.6 5.6 14.4 12.4 22.2 19 6.2-10 11.6-19.4 17.8-28zM220.2 567.267c6-0.8 9-3.8 8.6-10.2-0.4-7.6 0.2-15.2-0.6-22.8-2.4-23.4-15.4-39.4-35.8-49.8-16.4-8.4-33.8-11.6-52.2-10-30.4 2.6-42 26.2-39.2 52.6 2.6 25.2 17 39.2 43 43.6 27.6 4.8 32 2.2 76.2-3.4zM917.8 437.067c42.6 17.2 65.8 52.4 58.4 100-4.4 29.2-23.6 48.4-50.4 59-29.4 11.8-67.6 20.6-96.2 36.4-8.8 4.8-14.8 12.6-15.2 23.8-0.8 22.2 8.4 34.4 30.8 39.6 18.6 4.2 37.6 4.4 56.2 0.8 14.6-2.8 28.6-8.4 42.8-12.6 5.6-1.8 11.8-4.2 15.6 3.2 7.6 14.6 0.8 37.4-14.6 43.6-45 18-91 23.2-136.4 3.2-29.2-12.8-49.2-34.8-52-68.4-3.2-38.6 13.8-66.8 48.2-83.4 15.4-7.4 32.2-11.8 48.4-17.8s32.4-11.6 48.2-18.2c24.6-10.6 23.2-48.4 2.4-60-55.4-30.6-129.8 4.8-138.4 7.6-6.6 2.2-10.6-0.4-12.6-7.4-6-22.6 1.4-37.6 23.2-45.4 43.4-15.8 99.2-21 141.6-4zM592 111.667c101.6 11.6 197.4 41.6 285.4 94 16 9.4 31 20.6 46.2 31.4 14.6 10.4 6.4 36.8-22.6 24.4-108.8-46.4-222.4-72.2-340.4-77.8-61-3-121.6 0.6-182.2 9.4-126.2 18.4-244.8 58.4-355.2 122.4-4.2 2.4-8.4 5-13 6-9.8 2.2-15.4-9.4-4.8-19.4 48-44.2 100.6-81.6 158.2-111.4 107.4-55.4 221-85.4 342.4-84 28.8 1.6 57.6 1.8 86 5zM941.4 296.067c29.6-1.6 38.8-11.8 31.4-40.4-7.6-29.6-18.6-58.4-27.8-87.6-1.8-5.8-8.4-12.6-1.6-17.6 7.4-5.2 13 2 18 6.6 20.4 19 34.8 42 45 67.6 10.8 26.8 18.6 54.4 17.4 83.8-0.4 12.4-3.6 17.6-15.6 21-10.8 3-22 5.6-33 6.4-43.2 3.6-85-1-124-21.2-6.2-3.2-12-7.4-17.4-11.8-2.2-1.8-6.4-10.6 4.8-12.2 3.8-0.6 7.8 0.2 11.8 0.6 33.8 3.2 57.2 6.6 91 4.8z" />
<glyph unicode="&#xe919;" glyph-name="bandcamp" horiz-adv-x="992" d="M496 922.667c-274 0-496-222-496-496s222-496 496-496 496 222 496 496-222 496-496 496zM592.4 270.467h-362l169.4 312.2h362l-169.4-312.2z" />
<glyph unicode="&#xe91a;" glyph-name="behance" horiz-adv-x="1152" d="M464 464.267c63.6 30.4 96.8 76.4 96.8 148 0 141.2-105.2 175.6-226.6 175.6h-334.2v-708.8h343.6c128.8 0 249.8 61.8 249.8 205.8 0 89-42.2 154.8-129.4 179.4zM155.8 666.867h146.2c56.2 0 106.8-15.8 106.8-81 0-60.2-39.4-84.4-95-84.4h-158v165.4zM322.4 199.467h-166.6v195.2h169.8c68.6 0 112-28.6 112-101.2 0-71.6-51.8-94-115.2-94zM1039.4 680.867h-287.4v69.8h287.4v-69.8zM1152 328.267c0 151.8-88.8 278.4-249.8 278.4-156.4 0-262.6-117.6-262.6-271.6 0-159.8 100.6-269.4 262.6-269.4 122.6 0 202 55.2 240.2 172.6h-124.4c-13.4-43.8-68.6-67-111.4-67-82.6 0-126 48.4-126 130.6h370.2c0.6 8.4 1.2 17.4 1.2 26.4zM780.8 390.667c4.6 67.4 49.4 109.6 117 109.6 70.8 0 106.4-41.6 112.4-109.6h-229.4z" />
<glyph unicode="&#xe91b;" glyph-name="behance-square" horiz-adv-x="896" d="M373 352.667c0-38.6-28-50.8-62.4-50.8h-90.2v105.8h92c37.2-0.2 60.6-15.6 60.6-55zM357.6 517.267c0 35.4-27.4 43.8-57.8 43.8h-79.2v-89.6h85.4c30.2 0 51.6 13.2 51.6 45.8zM622.2 470.867c-36.6 0-61-22.8-63.4-59.4h124.4c-3.4 37-22.6 59.4-61 59.4zM896 778.667v-704c0-53-43-96-96-96h-704c-53 0-96 43-96 96v704c0 53 43 96 96 96h704c53 0 96-43 96-96zM543.4 568.667h155.6v37.8h-155.6v-37.8zM457.4 348.067c0 48.2-22.8 89.8-70 103.2 34.4 16.4 52.4 35.4 52.4 74 0 76.4-57 95-122.8 95h-181v-384h186.2c69.8 0.4 135.2 33.8 135.2 111.8zM760 377.667c0 82.2-48.2 150.8-135.2 150.8-84.8 0-142.2-63.6-142.2-147.2 0-86.6 54.6-146 142.2-146 66.4 0 109.4 29.8 130.2 93.6h-67.4c-7.4-23.8-37.2-36.2-60.4-36.2-44.8 0-68.2 26.2-68.2 70.6h200.4c0.2 4.6 0.6 9.6 0.6 14.4z" />
<glyph unicode="&#xe91c;" glyph-name="bimobject" horiz-adv-x="896" d="M832 874.667h-768c-35.2 0-64-28.8-64-64v-768c0-35.2 28.8-64 64-64h768c35.2 0 64 28.8 64 64v768c0 35.2-28.8 64-64 64zM704 359.867c0-98.8-22.8-165.2-207.6-165.2h-33.8c-88.2 0-124.8 29.8-140.8 77.6h-1.8v-69.6h-128v464h128v-149.4h2.2c9.2 61 79.4 77.6 139.4 77.6h34.6c184.8 0 207.6-66.2 207.6-165v-70zM576 417.667v-45.8c0-43.4-6.8-67.6-76.8-67.6h-90.6c-57.8 0-88.2 13-88.2 71.4v38c0 58.6 30.4 71.4 88.2 71.4h90.6c70 0.4 76.8-24 76.8-67.4z" />
<glyph unicode="&#xe91d;" glyph-name="bitbucket" d="M46.2 874.667c-17.8 0.2-32.2-13.8-32.4-31.6 0-1.8 0.2-3.6 0.4-5.6l135.6-822.8c3.4-20.8 21.4-36 42.4-36.2h650.2c15.8-0.2 29.4 11.2 32 26.8l135.6 832c2.8 17.4-9 33.8-26.4 36.6-1.8 0.2-3.6 0.4-5.6 0.4l-931.8 0.4zM616.8 280.067h-207.6l-56.2 293.6h314l-50.2-293.6z" />
<glyph unicode="&#xe91e;" glyph-name="bitcoin" d="M1008 426.667c0-273.934-222.066-496-496-496s-496 222.066-496 496 222.066 496 496 496 496-222.066 496-496zM724.698 497.327c9.874 65.998-40.382 101.478-109.1 125.146l22.292 89.404-54.426 13.562-21.702-87.048c-14.308 3.566-29.004 6.928-43.606 10.26l21.858 87.62-54.396 13.562-22.306-89.372c-11.844 2.698-23.47 5.364-34.754 8.168l0.062 0.28-75.060 18.74-14.478-58.124s40.382-9.254 39.53-9.826c22.044-5.502 26.028-20.088 25.36-31.65l-25.392-101.85c1.52-0.388 3.488-0.946 5.658-1.814-1.814 0.45-3.752 0.946-5.752 1.426l-35.592-142.676c-2.698-6.696-9.534-16.74-24.942-12.928 0.542-0.79-39.56 9.874-39.56 9.874l-27.020-62.294 70.828-17.654c13.176-3.302 26.090-6.758 38.8-10.012l-22.524-90.426 54.364-13.562 22.306 89.466c-0.128-0.559 14.408-4.432 29.005-8.151l14.369-3.103-22.23-89.046 54.426-13.562 22.524 90.256c92.808-17.562 162.598-10.478 191.972 73.454 23.672 67.58-1.178 106.562-50.008 131.982 35.56 8.196 62.348 31.584 69.494 79.898zM600.344 322.969c-16.82-67.58-130.616-31.046-167.51-21.886l29.888 119.798c36.892-9.206 155.2-27.434 137.622-97.912zM617.178 498.303c-15.346-61.472-110.062-30.24-140.786-22.584l27.096 108.654c30.726-7.656 129.672-21.946 113.69-86.070z" />
<glyph unicode="&#xe91f;" glyph-name="bity" horiz-adv-x="992" d="M156.8 804.267c190.8 178.4 492.2 182.4 686.2-7.6 28.6-28.2-12.8-74.2-44.8-43-169.6 164.8-431.6 160.6-597.8 6.4-32.6-30.2-73 16.6-43.6 44.2zM354.6-32.933c38.6-11.4 58.6 47.2 15.8 60-224.4 67.8-351.6 299.4-295 522 10 39.2-49.8 56.2-60.4 14.2-64.2-254.8 82.2-519.6 339.6-596.2zM650.8-28.933c243.8 80.4 385.8 333.8 328.8 582-9 39.4-69.8 27.6-60-15.8 48.4-215.4-74.2-435.8-286.4-506.8-42.4-14-20.8-72 17.6-59.4zM525 129.067l0.4 143.6c0 16.4-13.2 29.6-29.6 29.6s-29.6-13.4-29.6-29.6l-0.4-143.6c0-16.4 13.2-29.6 29.6-29.6s29.6 13.2 29.6 29.6zM667 667.067c4.2-181.8 9.4-263.8-171-265-185 1.4-173.8 88.6-171 265 0 43.6-65 39.2-65 0v-143.2c0-138.6 121.4-181.8 236-180.2 114.6-1.6 236 41.6 236 180.2v143.2c0 39.2-65 43.6-65 0z" />
<glyph unicode="&#xe920;" glyph-name="blackberry" d="M332 704.867c0-46.8-32.8-98.2-145-98.2h-140.2l42 177.6h135.6c84.2 0 107.6-46.6 107.6-79.4zM584.4 784.267h-135.6l-37.4-177.6h140.2c107.6 0 140.2 51.4 140.2 98.2 0.2 32.8-23.2 79.4-107.4 79.4zM177.6 522.467h-135.6l-42-177.6h140.2c112.2 0 145 46.8 145 98.2 0 32.6-23.4 79.4-107.6 79.4zM537.8 522.467h-135.6l-37.4-177.6h140.2c107.6 0 140.2 46.8 140.2 98.2 0 32.6-23.4 79.4-107.4 79.4zM916.4 630.067h-135.6l-37.4-177.6h140.2c107.6 0 140.2 46.8 140.2 98.2 0.2 32.6-23.2 79.4-107.4 79.4zM860.4 354.267h-135.6l-37.4-177.6h140.2c112.2 0 140.2 46.8 140.2 98.2 0 32.6-23.2 79.4-107.4 79.4zM481.6 246.667h-135.6l-37.4-177.6h140.2c112.2 0 140.2 51.4 140.2 98.2 0.2 32.6-23.2 79.4-107.4 79.4z" />
<glyph unicode="&#xe921;" glyph-name="black-tie" horiz-adv-x="896" d="M0 874.667v-896h896v896h-896zM633 224.267l-185-177.4-185 177.4 129 368-129 173.2h369.8l-128.8-173.2 129-368z" />
<glyph unicode="&#xe922;" glyph-name="blogger" horiz-adv-x="896" d="M324.8 546.667c9.6 9.8 12.4 10.2 72.8 10.2 54.4 0 56.2-0.2 64.2-4.2 11.6-5.8 16.6-14 16.6-27.2 0-11.8-4.8-20-15.2-26.8-5.6-3.6-9-3.8-62.2-4.2-32.8-0.2-59 0.4-63 1.6-20.6 5.8-28.2 35.4-13.2 50.6zM447.6 357.667c-107.8 0-111.6-0.4-120.4-8.2-7-6.2-11.4-18.8-10.2-27.8 1.4-9.4 9.6-20.2 18.4-24 4.4-2 28.2-3.4 112.6-2.4l95.8 1.2 18.4 3c18 10.2 21 34.8 6.2 48.8-10.6 9.4-10 9.4-120.8 9.4zM894.4 97.467c-7-56.8-46-100.8-102.2-115-14.4-3.6-19.4-3.8-345.8-3.6-315.6 0-331.8 0.2-344 3.6-16.8 4.4-31.2 11-44.6 20-11.2 7.6-27.8 23.6-34 32.8-7.6 11.2-16.4 30.6-20 44s-3.8 18.8-3.8 346.8c0 326.2 0 333.2 3.6 347.4 12.6 49.4 51.8 87.2 102.4 98.4 14.6 3.2 664.2 3.8 680 0.6 42.4-8.6 75.8-34.2 95.2-72.8 15.4-30.6 14 3 14.6-361.2 0.4-231.6 0-329-1.4-341zM723.6 467.867c-2.2 10-8.4 19.2-15.4 23-2.2 1.2-16 2.6-31 3.4-24.8 1.2-27.6 1.6-35.6 6.2-12.4 7.2-15.8 15.2-16 36.6 0 40.8-17 78.8-50.6 113-24 24.4-50.6 41-81.2 50.2-7.2 2.2-23.6 3-78.4 3.6-85.8 1-105-0.8-134.2-12.4-54-21.4-92.6-66.8-106.8-124.8-2.6-10.8-3.2-28.4-3.8-128.6-0.8-125.6 0-144.2 8-169 19.4-61.4 74.2-106.8 129.2-116.8 18.4-3.4 244.4-4.2 267.4-1 40.2 5.4 71.8 21.6 101.4 51.8 21.4 21.8 34.8 45.6 43.6 77 6.4 21.8 5.8 176.8 3.4 187.8z" />
<glyph unicode="&#xe923;" glyph-name="blogger-b" horiz-adv-x="896" d="M893.2 493.267c-3.6 16-13.6 30.8-25 37-3.6 2-26 4.4-50 5.4-40.2 1.8-44.6 2.6-57.4 10-20.2 11.8-25.6 24.6-25.8 59-0.2 66-27.6 127.4-81.8 182.6-38.6 39.4-81.8 66-131 81-11.8 3.6-38.2 4.8-126.6 5.8-138.8 1.6-169.6-1.2-216.8-20-87-34.4-149.4-107.6-172.2-201.2-4.2-17.6-5.2-45.8-6.2-207.8-1.2-203 0.2-232.8 12.8-273 31.2-99.2 119.8-172.6 208.8-188.6 29.6-5.4 394.6-6.6 432-1.6 65 8.8 116 35 163.8 83.8 34.6 35.4 56.2 73.6 70.4 124.2 9.8 35.2 9 285.6 5 303.4zM249 620.467c15.6 15.8 20 16.4 117.6 16.4 87.8 0 90.8-0.2 103.6-6.8 18.6-9.4 26.8-22.6 26.8-43.8 0-19-7.6-32.4-24.6-43.2-9.2-5.8-14.6-6.2-100.6-6.6-53-0.4-95.4 0.8-101.6 2.4-33.2 9.4-45.6 57-21.2 81.6zM632.6 220.867l-29.8-4.8-155-1.8c-136.2-1.6-174.6 0.8-181.8 4-14.2 6.2-27.6 23.4-29.8 38.8-2.2 14.6 5.2 34.6 16.4 44.8 14.2 12.8 20.4 13.2 194.6 13.4 179.2 0.2 178.2 0.2 195.2-15.6 24.2-22.6 19-62.4-9.8-78.8z" />
<glyph unicode="&#xe924;" glyph-name="bluetooth" horiz-adv-x="896" d="M585.2 596.467l-85.8-85.8-0.6 172 86.4-86.2zM498.8 156.867l86.2 86.2-85.8 85.8-0.4-172zM832 419.867c0-411.2-143.8-505.2-370.2-505.2s-397.8 94-397.8 505.2 166.8 518.8 393.2 518.8 374.8-107.8 374.8-518.8zM515 419.867l158.8 177.2-250.2 268.6v-353.8l-147.6 147.6-54-53.8 185.4-186-185.4-186 53.8-53.8 147.6 147.6 4.6-340 254.8 255-167.8 177.4z" />
<glyph unicode="&#xe925;" glyph-name="bluetooth-b" horiz-adv-x="640" d="M392.96 418.621l185.252 206.666-291.962 313.38v-412.66l-172.222 172.222-62.812-62.81 216.122-216.798-216.122-216.798 62.812-62.81 172.222 172.222 5.43-396.568 297.104 297.288-195.824 206.666zM474.68 624.613l-99.954-99.956-0.676 200.59 100.63-100.634zM374.726 312.587l99.954-99.956-100.63-100.632 0.676 200.588z" />
<glyph unicode="&#xe926;" glyph-name="btc" horiz-adv-x="768" d="M620.408 453.391c55.46 28.36 90.754 78.78 82.56 162.6-10.716 114.702-104.916 153.146-229.7 163.858v158.818h-97.056v-154.406c-25.21 0-51.050-0.63-76.888-1.26v155.666h-97.056v-158.818c-35.684-1.078-77.244-0.552-194.74 0v-103.356c76.628 1.356 116.834 6.28 126.046-42.854v-434.858c-5.85-38.984-37.048-33.37-106.51-32.142l-19.534-115.332c176.962 0 194.74-0.63 194.74-0.63v-136.010h97.056v134.12c26.468-0.63 52.308-0.63 76.888-0.63v-133.49h97.056v136.010c162.598 8.824 271.294 49.788 285.79 202.934 11.342 122.892-46.64 177.724-138.652 199.78zM301.216 669.561c54.83 0 226.252 17.014 226.252-97.056 0-109.030-171.42-96.424-226.252-96.424v193.48zM301.216 166.009v213.016c65.544 0 266.254 18.276 266.254-106.51-0.002-120.372-200.71-106.506-266.254-106.506z" />
<glyph unicode="&#xe927;" glyph-name="buromobelexperte" horiz-adv-x="896" d="M0 874.667v-256h256v256h-256zM240 634.667h-224v224h224v-224zM320 874.667v-256h256v256h-256zM560 634.667h-224v224h224v-224zM640 874.667v-256h256v256h-256zM880 634.667h-224v224h224v-224zM0 554.667v-256h256v256h-256zM240 314.667h-224v224h224v-224zM320 554.667v-256h256v256h-256zM560 314.667h-224v224h224v-224zM640 554.667v-256h256v256h-256zM880 314.667h-224v224h224v-224zM0 234.667v-256h256v256h-256zM240-5.333h-224v224h224v-224zM320 234.667v-256h256v256h-256zM560-5.333h-224v224h224v-224zM640 234.667v-256h256v256h-256z" />
<glyph unicode="&#xe928;" glyph-name="buysellads" horiz-adv-x="896" d="M448 637.267l85.8-321.4h-171.6l85.8 321.4zM896 778.667v-704c0-53-43-96-96-96h-704c-53 0-96 43-96 96v704c0 53 43 96 96 96h704c53 0 96-43 96-96zM765.4 128.067l-189 597.4h-256.8l-189-597.4h181.4l223.4 183.2 48.4-183.2h181.6z" />
<glyph unicode="&#xe929;" glyph-name="cc-amazon-pay" horiz-adv-x="1152" d="M249.4 535.067c0.2 23.6 0 47 0 70.6v70.6c0 2.6 0.8 4 2.8 5.4 23 16 48.2 24.2 76.4 22.2 25-1.8 45.4-14 56.2-43.4 6.6-17.8 8.2-36.4 8.2-55.4 0-17.4-1.4-34.6-6.8-51.2-11.4-35.6-37.4-49.4-71.4-47.8-23.4 1-43.8 10-62.8 23.4-1.8 1.6-2.8 3.2-2.6 5.6zM559.2 505.867c9.2-3.6 18.6-4 28.2-3 23.2 2.4 43.8 11.4 62.6 25 1.8 1.2 2.6 2.6 2.6 5-0.2 7.8 0 15.8 0 23.6 0 8-0.2 16 0 24 0 2.8-0.8 4-3.6 4.4-14 1.8-27.8 4.4-41.8 5.8-14 1.2-28 0.6-41.6-3.8-13.4-4.4-23.4-12.4-27.4-26.2-3.2-10.8-3.2-21.6 0.2-32.4 3.2-11 10.4-18.4 20.8-22.4zM1152 778.667v-704c0-53-43-96-96-96h-960c-53 0-96 43-96 96v704c0 53 43 96 96 96h960c53 0 96-43 96-96zM737 730.867c0.8-3.4 1.8-6.8 3.2-10.2 33-81.2 65.8-162.6 99-243.8 2.8-7 3.4-12.8 0.4-19.8-5.6-12.4-9.8-25.2-15.6-37.4-5.2-11-13.4-19-25.4-22.4-8.4-2.2-17-2.6-25.8-1.8-4.2 0.4-8.4 1.4-12.6 1.6-5.6 0.4-8.4-2.2-8.6-8-0.2-5.6-0.2-11.2 0-16.6 0.2-9.2 3.2-13.4 12.4-15 9.4-1.6 18.8-3.2 28.4-3.4 28.6-0.6 51.4 10.8 66.2 35.8 5.8 9.8 11.2 20.2 15.4 30.8 39.6 100.2 79 200.6 118.4 301 1.2 3 2.2 6 2.6 9.2 0.8 4.8-1.4 7.2-6.2 7.4-11.2 0.2-22.2 0-33.4 0-6.2 0-10.6-2.8-12.8-8.6-0.8-2.2-1.8-4.6-2.6-6.8l-58.2-167.4c-4.2-12.2-8.4-24.2-13-37.2-0.8 1.8-1.2 2.8-1.6 3.8-21.6 59.8-43.2 119.8-64.8 179.6-3.4 9.4-7 19-10.6 28.4-1.8 5-5.4 8-10.8 8-12.8 0.2-25.6 0.4-38.4 0.2-4.4 0-6.6-3.2-5.6-7.4zM484.8 526.667c3.4-23.4 15.2-41.6 36-53.2 19.8-11 41.4-12.4 63.4-9.2 25.4 3.8 47.8 14.6 67.6 31 0.8 0.6 1.6 1.2 2.8 2 1-6.4 1.8-12.4 3-18.4 1-5.2 4.2-8.6 9-8.8 9.2-0.2 18.2-0.2 27.4 0 4.6 0.2 7.6 3.2 8 7.8 0.2 1.6 0.2 3.2 0.2 4.6v177.6c0 7.2-0.4 14.4-1.4 21.6-3.2 21.6-12.4 39.4-31.8 50.8-11.2 6.6-23.6 10-36.4 11.8-6 0.8-12 1.4-18.2 2.2h-20c-1.6-0.2-3.2-0.6-5-0.6-16.4-0.8-32.6-2.8-48.4-7-10.2-2.6-20-6.4-30-9.8-6-2-9-6.4-8.8-13 0.2-5.6-0.2-11.2 0-16.6 0.2-8.2 3.6-10.4 11.4-8.2 13 3.4 26.2 7 39.4 9.6 20.6 3.8 41.4 5.4 62.2 2.4 10.8-1.6 21-4.8 28.2-14 6.2-8 8.4-17.6 8.8-27.4 0.6-13.8 0.4-27.8 0.6-41.6 0-0.8-0.2-1.4-0.4-2.4-0.8 0-1.6 0-2.2 0.2-17.6 4.2-35.4 7.2-53.6 8.2-19 1-37.8-0.2-55.8-6.4-21.6-7.6-39-20.6-49.2-41.6-8.2-16.6-9.2-34-6.8-51.6zM197.4 724.867v-350.6c0-1.6 0-3.4 0.2-5 0.4-5 3.4-8.2 8.2-8.4 11.8-0.2 23.6-0.2 35.4 0 5 0 8 3.4 8.2 8.2 0.2 1.6 0.2 3.4 0.2 5v121.4c1.8-1.4 2.8-2.4 3.8-3.2 30-25 64.4-33.2 102.2-25.8 34.2 6.8 57.8 27.8 73.4 58.4 11.6 23.2 16.6 48.2 17.4 74 1 28.6-2 56.8-13.6 83.4-14.2 32.8-37.8 54.6-73.4 61.8-5.4 1.2-11 1.6-16.4 2.4h-14c-2.4-0.4-4.8-0.6-7.2-1-23.4-2.8-44.6-11.6-63.6-25.4-4-2.8-7.8-6-11.8-9-0.2 1-0.6 1.6-0.8 2.4-0.8 4.6-1.4 9.2-2.2 13.8-1.2 7.8-5 11-12.8 11.2h-19.4c-11.8 0.2-13.8-2-13.8-13.6zM987.2 260.667c-5.4 1.4-10.2 0-15.2-2-87.8-36.8-179-60.4-273.6-71.6-29-3.4-58.2-5.6-87.4-6.4-53.2-1.4-106.4 1.6-159.2 8.6-35.6 4.8-71 11.4-106 19.8-74 17.8-145.4 43.4-213.4 77.6-17.6 8.8-34.8 18.6-52.2 28-7.6 4.2-12.4 3-16.4-4.2v-3.4c2.4-3.2 4.4-6.8 7.4-9.6 72-64.4 153.2-113 244-145.8 43.8-15.8 88.8-27.4 134.6-35 28-4.6 56-7.6 84.4-9 6-0.2 12-0.4 18-0.8 1.4 0 2.8-0.4 4.2-0.6h35.4c1.4 0.2 2.8 0.6 4.2 0.6 29.8 0.8 59.6 3.6 89.2 8 42.8 6.4 84.8 16.2 125.8 29.4 59.2 19.2 115.4 44.8 166.8 80.2 5.6 3.8 11.4 7.6 16 12.4 8.6 8.8 4.6 20.8-6.6 23.8zM1088 316.067c-1.6 8.4-8 11.6-15.2 14-11.4 3.8-23.2 5.6-35.2 6.6-22 1.8-44 0.8-65.6-3.2-24-4.4-46.8-12.2-67-26.2-2.4-1.6-4.8-3.6-6.2-6-1.2-1.8-1.4-4.6-1-6.8 0.6-2.6 3.4-3.2 6-3 1.2 0 2.4 0 3.6 0.2l39 4.2c19.2 1.8 38.4 3 57.6 1.6 8.2-0.6 16.2-2.4 24-4.4 8.6-2.2 12.4-8.8 12.8-17.4 0.6-13.4-2.4-26.2-5.8-39-7-25.8-16.6-50.8-26.6-75.6-0.6-1.6-1.4-3.4-1.6-5-0.8-5 2-8 6.8-7 2.8 0.6 6 2.2 8 4.2 7.4 7.2 15 14.4 21.2 22.4 21.4 27.6 34 59.2 41.4 93.2 1.4 6 2.4 12.2 3.4 18.2 0.4 9.4 0.4 19.2 0.4 29z" />
<glyph unicode="&#xe92a;" glyph-name="cc-amex" horiz-adv-x="1152" d="M1152 427.867c-75.8 0.4-88.4 1.8-109-10v10c-90.6 0-107 3.4-129.8-10.4v10.4h-156.4v-10.2c-22.8 13-42.8 10.2-151.4 10.2v-11.2c-12.6 7.4-29 11.2-48.6 11.2h-116c-7-7.6-25-27.4-31.4-34.4-25.4 28.2-21 23.2-31 34.4h-166.2v-184.6h164c6.6 7 25.8 27.8 32.2 34.8 25.4-28.6 20.6-23.4 30.8-34.8h97.8c0 29.4 0.2 16.6 0.2 46 23-0.4 48.6 0.4 68.6 12.4 0-27.8-0.2-34.2-0.2-58.4h79.2c0 37 0.2 14.8 0.2 50.6 12.4 0 15.4 0 18.8-0.2 0.2-2.6 0 0 0-50.4 305.6 0 291.8-2.2 313.4 9v-9c69.6 0 109.6-4.4 135 12.2v-180.8c0-53-43-96-96-96h-960.2c-53 0-96 43-96 96v407.4h53.2c8.4 20.2 4.4 10.6 12.8 30.6h38.4c8.4-20 4.4-10.4 12.8-30.6h105.8v22.8c4.4-10 2.2-5 10.2-22.8h59c4.8 11 5.2 11.6 10.2 22.8v-22.8h271v50.2c12.8 0 16 0.2 19.6-0.4 0 0-0.4-21.8 0.2-49.6h133v17.8c14.8-11.8 34.8-17.8 59.4-17.8h53.6c8.4 20.2 4.4 10.6 12.8 30.6h38c13-30 0.4-1 13.2-30.6h105.6v43.8c23.6-39.4 15.6-25.8 26.4-43.8h83.2v184h-79.8v-36.8c-24.4 40.4-12.6 20.8-22.4 36.8h-86.6v-41.2c-12.4 29.2-9.2 21.6-17.6 41.2h-64.8c-0.8 0-4.6-0.4-4.6 0.6h-55.2c-25.6 0-46.2-6.4-61.4-18.6v18.6h-79.8v-10.6c-21.6 12.2-41.4 10.2-128.8 10.6-0.2 0-23.2 0.2-23.2 0h-206c-5-12.2-13.6-32.8-25.2-60-5.6 12-22 47.6-27.8 60h-92v-42.2c-14.8 34.8-9.4 22-18 42.2h-79.4c-6.8-15.8-27.4-64-46.2-107.8v219.6c0 53 43 96 96 96h960c53 0 96-43 96-96v-350.8zM778.8 589.067c-0.6-0.4-2.8-4.4-2.8-15.2 0-12 1.8-15.4 2.2-15.8 0.4-0.2 2.2-1 6.8-1l14.6 33.8c-2.2 0-4.2 0.2-6.2 0.2-11.2 0-14-1.4-14.6-2zM739 327.267c18.4-6.6 22-19 22-36.8l-0.2-27.6h-33.2l0.2 23c0 23.6-7.6 27.6-29.6 27.6h-35.2l-0.2-50.6h-33.2l0.2 138.6h78.8c26 0 54.2-4.6 54.2-37.4-0.2-15.2-8.4-30.6-23.8-36.8zM726.4 358.067c0 12.8-11.2 14.8-21.4 14.8h-42v-31.2h41.4c11.2 0 22 2.6 22 16.4zM1089.8 372.267h60.2v29.2h-65.8c-25.6 0-47.6-13.2-47.6-41.4 0-66 85.4-25.6 85.4-54.8 0-10.2-8.6-12.8-16.8-12.8h-64l-0.2-29.6h64c16.8 0 35.2 3.6 45 17.8v51.6c-21 27.6-78.6 2.6-78.6 27 0 11.6 9.2 13 18.4 13zM891.4 372.867v28.6h-110.4l-0.2-138.6h110.4l0.2 28.6-77.2 0.6v27.6h75.8v28.2h-75.6v25h77zM975.8 292.667h-64.4l-0.2-29.6h64.4c29.6 0 52.4 11.2 52.4 44 0 66.4-85.8 22.4-85.8 52.6 0 11.2 9.8 12.8 18.4 12.8h60.8v29.2h-66.4c-25.6 0-47-13.2-47-41.4 0-66 85.4-25 85.4-54.8-0.2-10.8-9.4-12.8-17.6-12.8zM819.6 610.067c-34.8 0.6-66.4 8.2-66.4-39.4 0-23.6 5.6-39.8 32.2-39.8h14.8l47 109h49.6l55.8-130.8v130.8h50.6l58.2-96.2v96.2h33.8v-138h-47.2l-62.4 103.8v-103.8h-67.4l-13.2 30.6h-68.6l-12.8-30.6h-38.4c-45.6 0-66 23.6-66 68 0 46.6 21 70.6 68 70.6h32.2v-30.4zM848.2 561.067h45.6l-22.4 55.2-23.2-55.2zM703 640.267h-33.8v-138.6h33.8v138.6zM626.8 565.667c19-6.6 22-18.4 22-36.8v-27h-33.2c-0.6 29.6 7.2 50.2-29.6 50.2h-36v-50.2h-32.8v138.6l78.2-0.6c26.6 0 54.8-4 54.8-36.8 0.2-16-8.6-31.4-23.4-37.4zM613.4 596.267c0 12.8-11.2 14.8-21.4 14.8h-42v-30.6h41.4c11.4 0 22 2.6 22 15.8zM494.4 611.067v29.2h-111v-138.6h111v28.6h-77.8v27.6h75.6v28.2h-75.6v25h77.8zM325.2 501.667v108.4l-48-108.4h-29.2l-48 108.4v-108.4h-67.6l-12.8 30.6h-69l-12.8-30.6h-35.8l59.4 138.6h49l56.2-131.4v131.4h54.2l43.4-94 39.4 94h55.2v-138.6h-33.6zM107.8 561.067l-23 55.2-22.4-55.2h45.4zM613.8 356.067c0-55.8-60.8-46.6-98.6-46.6l-0.2-46.6h-64.4l-40.8 46-42.6-46h-130.8l0.2 138.6h133l41-45.6 42 45.6h105.4c31.2 0 55.8-10.8 55.8-45.4zM388.4 332.467l-35.8 40.4h-83.4v-25h72.6v-28.2h-72.6v-27.6h81.2l38 40.4zM482 386.667l-50.6-54.8 50.6-56.2v111zM578.6 356.067c0 12.2-9.2 16.8-20.4 16.8h-43v-35.2h42.4c11.8 0 21 5.6 21 18.4z" />
<glyph unicode="&#xe92b;" glyph-name="cc-apple-pay" horiz-adv-x="1152" d="M604.4 501.867c0-34.4-21-54.2-58-54.2h-48.6v108.4h48.8c36.8 0 57.8-19.6 57.8-54.2zM699.4 376.667c0-16.6 14.4-27.4 37-27.4 28.8 0 50.4 18.2 50.4 43.8v15.4l-47-3c-26.6-1.8-40.4-11.6-40.4-28.8zM1152 780.667v-704c0-53-43-96-96-96h-960c-53 0-96 43-96 96v704c0 53 43 96 96 96h960c53 0 96-43 96-96zM255.6 544.267c16.8-1.4 33.6 8.4 44.2 20.8 10.4 12.8 17.2 30 15.4 47.4-14.8-0.6-33.2-9.8-43.8-22.6-9.6-11-17.8-28.8-15.8-45.6zM376.8 395.267c-0.4 0.4-39.2 15.2-39.6 60-0.4 37.4 30.6 55.4 32 56.4-17.6 26-44.8 28.8-54.2 29.4-24.4 1.4-45.2-13.8-56.8-13.8-11.8 0-29.4 13.2-48.6 12.8-25-0.4-48.4-14.6-61-37.2-26.2-45.2-6.8-112 18.6-148.8 12.4-18.2 27.4-38.2 47-37.4 18.6 0.8 26 12 48.4 12 22.6 0 29-12 48.6-11.8 20.4 0.4 33 18.2 45.6 36.4 13.8 20.8 19.6 40.8 20 42zM647.6 502.067c0 53.2-37 89.6-89.8 89.6h-102.4v-272.8h42.4v93.2h58.6c53.6 0 91.2 36.8 91.2 90zM827.6 454.667c0 39.4-31.6 64.8-80 64.8-45 0-78.2-25.8-79.4-61h38.2c3.2 16.8 18.8 27.8 40 27.8 26 0 40.4-12 40.4-34.4v-15l-52.8-3.2c-49.2-3-75.8-23.2-75.8-58.2 0-35.4 27.4-58.8 66.8-58.8 26.6 0 51.2 13.4 62.4 34.8h0.8v-32.8h39.2v136zM1032 516.867h-43l-49.8-161.2h-0.8l-49.8 161.2h-44.6l71.8-198.6-3.8-12c-6.4-20.4-17-28.4-35.8-28.4-3.4 0-9.8 0.4-12.4 0.6v-32.8c2.4-0.8 13-1 16.2-1 41.4 0 60.8 15.8 77.8 63.6l74.2 208.6z" />
<glyph unicode="&#xe92c;" glyph-name="cc-diners-club" horiz-adv-x="1152" d="M479.4 778.867c-193.8 0-351.6-157.2-351.6-351.6 0-193.8 157.8-351.6 351.6-351.6 194.4 0 351.6 157.8 351.6 351.6 0 194.4-157.2 351.6-351.6 351.6zM399.6 219.667c-83.4 31.8-142.8 112.8-142.8 207.6s59.4 175.8 142.8 208.2v-415.8zM559.2 219.067v416.4c83.4-32.4 142.8-113.4 142.8-208.2s-59.4-175.8-142.8-208.2zM1056 874.667h-960c-53 0-96-43-96-96v-704c0-53 43-96 96-96h960c53 0 96 43 96 96v704c0 53-43 96-96 96zM659.4 42.667h-180.6c-212.4 0-387.6 171-387.6 380.4 0 229.2 175.2 387.6 387.6 387.6h180.6c210 0 401.4-158.4 401.4-387.6 0-209.4-191.4-380.4-401.4-380.4z" />
<glyph unicode="&#xe92d;" glyph-name="cc-discover" horiz-adv-x="1152" d="M166 514.467c0-15.8-6.4-31-17.8-41.4-9.8-8.8-23.2-12.8-43.8-12.8h-8.4v108.4h8.4c20.6 0 33.4-3.4 43.8-13.2 11.4-10 17.8-25.2 17.8-41zM1009.6 570.667h-9.8v-49.8h9.4c20.6 0 31.6 8.8 31.6 25.6 0 15.8-11 24.2-31.2 24.2zM1152 778.667v-704c0-53-43-96-96-96h-960c-53 0-96 43-96 96v704c0 53 43 96 96 96h960c53 0 96-43 96-96zM856 432.667h90.6v27.6h-58.6v44.4h56.6v27.6h-56.6v36.4h58.6v28h-90.6v-164zM683.6 596.667l70-168.4h17.2l71 168.4h-35l-44.4-110.4-43.8 110.4h-35zM517.6 513.467c0-49.2 39.8-89.2 89.2-89.2 49.2 0 89.2 39.8 89.2 89.2 0 49.2-39.8 89.2-89.2 89.2-49.2 0-89.2-39.8-89.2-89.2zM381.6 514.467c0-65 67.2-105 126.6-76.4v38c-38.6-38.6-93.6-11.6-93.6 38.4 0 47.4 53.4 78.2 93.6 38v38c-60.4 30-126.6-13.6-126.6-76zM313.8 457.867c-15.2 0-27.6 7.4-35 21.6l-20.6-19.8c35.6-52.2 113.2-36.4 113.2 22.6 0 26.2-10.8 38-47.2 51.2-19.2 6.8-24.6 11.8-24.6 20.6 0 17.4 29 28.2 49.8 5l16.8 21.6c-38.2 34.2-99.4 17.8-99.4-28.6 0-22.6 10.4-34.4 40.4-45.4 51.4-18.2 29.4-48.8 6.6-48.8zM199 514.467c0 48.2-36 82.2-88.2 82.2h-46.8v-164h46.8c61.8 0 88.2 44.8 88.2 81.8zM245.8 596.667h-32v-164h32v164zM1088 362.667c-66.6-41.6-452.8-248.8-832-320h802c16.4 0 30 13.6 30 30v290zM1088 432.667l-51.8 69c24.2 5 37.4 21.2 37.4 46.4 0 57-60.6 48.8-105.8 48.8v-164h32v65.6h4.4l44.4-65.6h39.4z" />
<glyph unicode="&#xe92e;" glyph-name="cc-jcb" horiz-adv-x="1152" d="M863 450.067v64.6c82.4 0 77-0.4 77-0.4 14.6-2.6 26.6-14.6 26.6-32 0-17.6-12-29-26.6-31.6-2.4-0.8-6.6-0.6-77-0.6zM948.6 409.667c-5.6 1.4-6.6 1-85.6 1v-70c79.2 0 80-0.4 85.6 1 15 3 27 16 27 34 0 17.4-12 31-27 34zM1152 778.667v-704c0-53-43-96-96-96h-960c-53 0-96 43-96 96v704c0 53 43 96 96 96h960c53 0 96-43 96-96zM364 554.067h-114c0-134.2 21.4-219.4-71.6-219.4-39 0-77.6 11.4-114.4 29.6v-56c60-16.6 136-16.6 136-16.6 195.8 0 164 95.4 164 262.4zM721 545.067c-126.8 32-330 29.8-330-118.6 0-154.2 216.4-147.2 330-118.4v56.6c-95.2-49.4-215-44-215 62s119.6 111.2 215 62.4v56zM1088 365.667c0 37-33 61-76 64v1.6c39 5.4 60.6 31 60.6 60.4 0 38-31.4 60-74 62 0 0 12.6 0.6-240.6 0.6v-255h245.4c48.6-0.2 84.6 25.8 84.6 66.4z" />
<glyph unicode="&#xe92f;" glyph-name="cc-mastercard" horiz-adv-x="1152" d="M965.8 118.067c0-13.6-9.2-23.4-22.4-23.4-13.6 0-22.4 10.4-22.4 23.4s8.8 23.4 22.4 23.4c13.2 0 22.4-10.4 22.4-23.4zM344.2 141.467c-14.2 0-22.4-10.4-22.4-23.4s8.2-23.4 22.4-23.4c13 0 21.8 9.8 21.8 23.4-0.2 13-8.8 23.4-21.8 23.4zM579.2 142.067c-10.8 0-17.4-7-19-17.4h38.2c-1.8 11.4-8.8 17.4-19.2 17.4zM794.8 141.467c-13.6 0-21.8-10.4-21.8-23.4s8.2-23.4 21.8-23.4c13.6 0 22.4 9.8 22.4 23.4 0 13-8.8 23.4-22.4 23.4zM1006.6 89.267c0-0.6 0.6-1 0.6-2.2 0-0.6-0.6-1-0.6-2.2-0.6-0.6-0.6-1-1-1.6-0.6-0.6-1-1-2.2-1-0.6-0.6-1-0.6-2.2-0.6-0.6 0-1 0-2.2 0.6-0.6 0-1 0.6-1.6 1-0.6 0.6-1 1-1 1.6-0.6 1-0.6 1.6-0.6 2.2 0 1 0 1.6 0.6 2.2 0 1 0.6 1.6 1 2.2 0.6 0.6 1 0.6 1.6 1 1 0.6 1.6 0.6 2.2 0.6 1 0 1.6 0 2.2-0.6 1-0.6 1.6-0.6 2.2-1s0.4-1.2 1-2.2zM1002.2 86.467c1 0 1 0.6 1.6 0.6 0.6 0.6 0.6 1 0.6 1.6s0 1-0.6 1.6c-0.6 0-1 0.6-2.2 0.6h-3.2v-7h1.6v2.8h0.6l2.2-2.8h1.6l-2.2 2.6zM1152 776.667v-704c0-53-43-96-96-96h-960c-53 0-96 43-96 96v704c0 53 43 96 96 96h960c53 0 96-43 96-96zM128 497.467c0-153 124.2-277 277-277 54.4 0 107.8 16.4 153 46.2-145.8 118.6-144.8 342.4 0 461-45.2 30-98.6 46.2-153 46.2-152.8 0.2-277-124-277-276.4zM576 279.867c141 110 140.4 324.4 0 435-140.4-110.6-141-325.2 0-435zM291.4 127.267c0 17.4-11.4 28.8-29.4 29.4-9.2 0-19-2.8-25.6-13-4.8 8.2-13 13-24.4 13-7.6 0-15.2-2.8-21.2-10.8v8.8h-16.4v-73.4h16.4c0 37.8-5 60.4 18 60.4 20.4 0 16.4-20.4 16.4-60.4h15.8c0 36.6-5 60.4 18 60.4 20.4 0 16.4-20 16.4-60.4h16.4v46zM381.2 154.667h-15.8v-8.8c-5.4 6.6-13 10.8-23.4 10.8-20.6 0-36.4-16.4-36.4-38.6 0-22.4 15.8-38.6 36.4-38.6 10.4 0 18 3.8 23.4 10.8v-9.2h15.8v73.6zM462.2 103.467c0 30-45.8 16.4-45.8 30.4 0 11.4 23.8 9.6 37 2.2l6.6 13c-18.8 12.2-60.4 12-60.4-16.4 0-28.6 45.8-16.6 45.8-30 0-12.6-27-11.6-41.4-1.6l-7-12.6c22.4-15.2 65.2-12 65.2 15zM533 84.867l-4.4 13.6c-7.6-4.2-24.4-8.8-24.4 8.2v33.2h26.2v14.8h-26.2v22.4h-16.4v-22.4h-15.2v-14.6h15.2v-33.4c0-35.2 34.6-28.8 45.2-21.8zM559.6 111.667h55c0 32.4-14.8 45.2-34.8 45.2-21.2 0-36.4-15.8-36.4-38.6 0-41 45.2-47.8 67.6-28.4l-7.6 12c-15.6-12.8-39.2-11.6-43.8 9.8zM677.8 154.667c-9.2 4-23.2 3.6-30.4-8.8v8.8h-16.4v-73.4h16.4v41.4c0 23.2 19 20.2 25.6 16.8l4.8 15.2zM699 118.067c0 22.8 23.2 30.2 41.4 16.8l7.6 13c-23.2 18.2-65.4 8.2-65.4-30 0-39.6 44.8-47.6 65.4-30l-7.6 13c-18.4-13-41.4-5.2-41.4 17.2zM832.4 154.667h-16.4v-8.8c-16.6 22-59.8 9.6-59.8-27.8 0-38.4 44.8-49.4 59.8-27.8v-9.2h16.4v73.6zM899.8 154.667c-4.8 2.4-22 5.8-30.4-8.8v8.8h-15.8v-73.4h15.8v41.4c0 22 18 20.6 25.6 16.8l4.8 15.2zM980.4 184.467h-15.8v-38.6c-16.4 21.8-59.8 10.2-59.8-27.8 0-38.8 45-49.2 59.8-27.8v-9.2h15.8v103.4zM995.6 334.667v-9.2h1.6v9.2h3.8v1.6h-9.2v-1.6h3.8zM1008.8 87.067c0 1 0 2.2-0.6 3.2-0.6 0.6-1 1.6-1.6 2.2s-1.6 1-2.2 1.6c-1 0-2.2 0.6-3.2 0.6-0.6 0-1.6-0.6-2.8-0.6-1-0.6-1.6-1-2.2-1.6-1-0.6-1.6-1.6-1.6-2.2-0.6-1-0.6-2.2-0.6-3.2 0-0.6 0-1.6 0.6-2.8 0-0.6 0.6-1.6 1.6-2.2 0.6-0.6 1-1 2.2-1.6 1-0.6 2.2-0.6 2.8-0.6 1 0 2.2 0 3.2 0.6 0.6 0.6 1.6 1 2.2 1.6s1 1.6 1.6 2.2c0.6 1.2 0.6 2.2 0.6 2.8zM1015.2 336.467h-2.8l-3.2-7-3.2 7h-2.8v-10.8h1.6v8.2l3.2-7h2.2l2.8 7v-8.2h2.2v10.8zM1024 497.467c0 152.4-124.2 276.6-277 276.6-54.4 0-107.8-16.4-153-46.2 144.2-118.6 146.4-343 0-461 45.2-30 99-46.2 153-46.2 152.8-0.2 277 123.8 277 276.8z" />
<glyph unicode="&#xe930;" glyph-name="cc-paypal" horiz-adv-x="1152" d="M372.6 422.267c0-24.4-19.4-43-44-43-18.4 0-32 10.4-32 30 0 24.4 19 44 43.4 44 18.6 0 32.6-11.4 32.6-31zM161 519.267h-9.4c-3 0-6-2-6.4-5.4l-8.6-53.4 16.4 0.6c22 0 39 3 43 28.4 4.6 26.8-12.4 29.8-35 29.8zM729 519.267h-9c-3.6 0-6-2-6.4-5.4l-8.4-53.4 16 0.6c26 0 44 6 44 36-0.2 21.2-19.2 22.2-36.2 22.2zM1152 778.667v-704c0-53-43-96-96-96h-960c-53 0-96 43-96 96v704c0 53 43 96 96 96h960c53 0 96-43 96-96zM256.6 507.867c0 42-32.4 56-69.4 56h-80c-5 0-10-4-10.4-9.4l-32.8-204.2c-0.6-4 2.4-8 6.4-8h38c5.4 0 10.4 5.8 11 11.4l9 53.2c2 14.4 26.4 9.4 36 9.4 57.2 0 92.2 34 92.2 91.6zM425 490.267h-38c-7.6 0-8-11-8.4-16.4-11.6 17-28.4 20-47.4 20-49 0-86.4-43-86.4-90.4 0-39 24.4-64.4 63.4-64.4 18 0 40.4 9.8 53 23.8-1-3-2-9.4-2-12.4 0-4.6 2-8 6.4-8h34.4c5.4 0 10 5.8 11 11.4l20.4 128.6c0.6 3.8-2.4 7.8-6.4 7.8zM506 294.467l127.4 185.2c1 1 1 2 1 3.4 0 3.4-3 7-6.4 7h-38.4c-3.4 0-7-2-9-5l-53-78-22 75c-1.6 4.4-6 8-11 8h-37.4c-3.4 0-6.4-3.6-6.4-7 0-2.4 39-113.6 42.4-124.2-5.4-7.6-41-57.2-41-63.2 0-3.6 3-6.4 6.4-6.4h38.4c3.6 0.2 7 2.2 9 5.2zM824.6 507.867c0 42-32.4 56-69.4 56h-79.4c-5.4 0-10.4-4-11-9.4l-32.4-204c-0.4-4 2.6-8 6.4-8h41c4 0 7 3 8 6.4l9 58c2 14.4 26.4 9.4 36 9.4 56.8 0 91.8 34 91.8 91.6zM993 490.267h-38c-7.6 0-8-11-8.6-16.4-11 17-28 20-47.4 20-49 0-86.4-43-86.4-90.4 0-39 24.4-64.4 63.4-64.4 18.6 0 41 9.8 53 23.8-0.6-3-2-9.4-2-12.4 0-4.6 2-8 6.4-8h34.6c5.4 0 10 5.8 11 11.4l20.4 128.6c0.6 3.8-2.4 7.8-6.4 7.8zM1088 556.867c0 4-3 7-6.4 7h-37c-3 0-6-2.4-6.4-5.4l-32.4-208-0.6-1c0-3.6 3-7 7-7h33c5 0 10 5.8 10.4 11.4l32.4 202.4v0.6zM908 453.267c-24.4 0-43.4-19.4-43.4-44 0-19.4 14-30 32.4-30 24 0 43.4 18.4 43.4 43 0.2 19.6-13.8 31-32.4 31z" />
<glyph unicode="&#xe931;" glyph-name="cc-stripe" horiz-adv-x="1152" d="M793.8 425.667c0-38.2-17.6-66.8-43.8-66.8-16.6 0-26.6 6-33.6 13.4l-0.4 105.6c7.4 8.2 17.6 14 34 14 25.8 0.2 43.8-29 43.8-66.2zM1152 778.667v-704c0-53-43-96-96-96h-960c-53 0-96 43-96 96v704c0 53 43 96 96 96h960c53 0 96-43 96-96zM244.4 376.467c0 84.6-108.6 69.4-108.6 101.4 0 11 9.2 15.4 24.2 15.4 21.6 0 49-6.6 70.6-18.2v66.8c-23.6 9.4-47 13-70.6 13-57.6 0-96-30-96-80.4 0-78.6 108-65.8 108-99.8 0-13.2-11.4-17.4-27.2-17.4-23.6 0-53.8 9.8-77.8 22.6v-67.8c26.4-11.4 53.2-16.2 77.6-16.2 59.2 0.4 99.8 29.4 99.8 80.6zM382.2 550.267h-54v61.6l-69.4-14.8-0.4-227.8c0-42 31.6-73 73.8-73 23.2 0 40.4 4.2 49.8 9.4v57.8c-9-3.6-54-16.6-54 25.2v101h54v60.6zM529.8 550.267c-9.4 3.4-42.6 9.6-59.2-21l-4.4 21h-61.4v-249h71v168.8c16.8 22 45.2 17.8 54.2 14.8v65.4zM618.2 550.267h-71.4v-249h71.4v249zM618.2 644.867l-71.4-15.2v-57.8l71.4 15.2v57.8zM863.6 427.267c0 82.6-47 127.6-96.8 127.6-27.8 0-45.8-13.2-55.6-22.2l-3.6 17.6h-62.6v-331.6l71 15 0.2 80.4c10.2-7.4 25.4-18 50.2-18 50.8 0.2 97.2 41 97.2 131.2zM1088 424.867c0 72.8-35.2 130.2-102.6 130.2-67.6 0-108.6-57.4-108.6-129.8 0-85.6 48.4-129 117.6-129 34 0 59.4 7.8 78.8 18.4v57.2c-19.4-9.8-41.6-15.8-69.8-15.8-27.6 0-52 9.8-55.2 43h139c0.2 4 0.8 18.8 0.8 25.8zM984.8 497.067c-17.8 0-37.4-13.4-37.4-45.4h73.4c0 32-18.6 45.4-36 45.4z" />
<glyph unicode="&#xe932;" glyph-name="cc-visa" horiz-adv-x="1152" d="M940.2 476.067s15.2-74.4 18.6-90h-66.8c6.6 17.8 32 87 32 87-0.4-0.6 6.6 18.2 10.6 29.8l5.6-26.8zM1152 778.667v-704c0-53-43-96-96-96h-960c-53 0-96 43-96 96v704c0 53 43 96 96 96h960c53 0 96-43 96-96zM305 276.267l126.4 310.4h-85l-78.6-212-8.6 43-28 142.8c-4.6 19.8-18.8 25.4-36.4 26.2h-129.4l-1.4-6.2c31.6-8 59.8-19.6 84.4-34.2l71.6-270h85zM493.8 275.867l50.4 310.8h-80.4l-50.2-310.8h80.2zM773.6 377.467c0.4 35.4-21.2 62.4-67.4 84.6-28.2 14.2-45.4 23.8-45.4 38.4 0.4 13.2 14.6 26.8 46.2 26.8 26.2 0.6 45.4-5.6 59.8-11.8l7.2-3.4 11 67.2c-15.8 6.2-41 13.2-72 13.2-79.4 0-135.2-42.4-135.6-102.8-0.6-44.6 40-69.4 70.4-84.4 31-15.2 41.6-25.2 41.6-38.6-0.4-20.8-25.2-30.4-48.2-30.4-32 0-49.2 5-75.4 16.6l-10.6 5-11.2-69.8c18.8-8.6 53.6-16.2 89.6-16.6 84.4-0.2 139.4 41.6 140 106zM1056 275.867l-64.8 310.8h-62.2c-19.2 0-33.8-5.6-42-25.8l-119.4-285h84.4s13.8 38.4 16.8 46.6h103.2c2.4-11 9.6-46.6 9.6-46.6h74.4z" />
<glyph unicode="&#xe933;" glyph-name="centercode" d="M658.4 401.467c-7.6-70.4-70.8-121.2-141.2-113.6s-121.2 70.8-113.6 141.2c7.6 70.4 70.8 121.2 141.2 113.6 70.2-7.6 121.2-70.8 113.6-141.2zM486.8-68.733c-293.4 15.4-503.2 276.4-466.6 558.8 22.4 173.2 131.6 313.8 278.2 384 322 154.2 699.4-74.8 709.4-433.2 8.2-294-236.8-524.4-521-509.6zM846.6 291.267c55.8 236-321 411.8-474.4 468.4-115-112.6-138.2-377.2-67.6-688.8 137.6-31.6 338.2 52.8 542 220.4z" />
<glyph unicode="&#xe934;" glyph-name="chrome" horiz-adv-x="992" d="M263 503.667l-152.8 234.8c95.2 118.4 238 183.6 384 184.2 84.6 0.6 171-21 249.6-66.4 86.8-50.4 152.8-122.8 194.8-206l-410.6 21.6c-116.2 6.8-226.8-58.6-265-168.2zM328.8 426.667c0-92.4 74.8-167.2 167.2-167.2s167.2 74.8 167.2 167.2-74.8 167.2-167.2 167.2-167.2-74.6-167.2-167.2zM958.6 605.067l-279.4-14.4c75.8-88.6 77-216.4 13.2-314.4l-224.2-344.8c93-5 188.8 15.4 275.6 65.8 214.8 124 301.8 384 214.8 607.8zM267.4 331.467l-186.6 367c-51-78-80.8-171.6-80.8-271.8 0-248 181.6-453.4 419-489.8l127.4 249.6c-115.2-21.6-226.4 41.6-279 145z" />
<glyph unicode="&#xe935;" glyph-name="cloudscale" horiz-adv-x="896" d="M636.2 630.667l-18.8-15.2c-45 38.6-103 67.2-166.6 67.2-143.2 0-258.8-121.6-258.8-264.6 0-13.2 0.8-26.2 2.8-38.8-4 112 83.6 194.8 185.2 194.8 48.4 0 92.4-18.8 125.2-49.4l-50.4-40.8c-16.6 1.8-33.6-3.6-46.2-16.2-22.2-22-22.2-57.8 0-80 22.2-22 57.8-22 80 0 12.6 12.6 18 29.8 16.2 46.2l150.4 177.6c12.6 13-6.6 31.8-19 19.2zM468.6 407.667c-11.2-11-29.2-11-40.4 0-11.2 11.2-11.2 29.2 0 40.4s29.2 11.2 40.4 0 11.2-29.4 0-40.4zM448 874.667c-247 0-448-201-448-448s201-448 448-448 448 201 448 448-201 448-448 448zM448 106.667c-176.4 0-320 143.6-320 320s143.6 320 320 320 320-143.6 320-320-143.6-320-320-320z" />
<glyph unicode="&#xe936;" glyph-name="cloudsmith" horiz-adv-x="664" d="M665 98.867c0-92.8-75.2-168.2-168-168.2s-168 75.4-168 168.2 75.2 168 168 168 168-75.2 168-168zM497 586.667c92.8 0 160 75.2 160 168s-67.2 168-160 168-176-75.2-176-168-59.2-152-152-152-168-83.2-168-176 75.2-160 168-160 168 67.2 168 160 67.2 160 160 160z" />
<glyph unicode="&#xe937;" glyph-name="cloudversify" horiz-adv-x="1232" d="M297.2 330.667c16.4-137 134.8-231 292-222.6 102.4-86.6 273.6-91.6 372.8 11.2 138.4-2.2 237 89.2 263 199 29.6 125-36.4 265-184.2 310.2-66 176.2-262.8 203-373 170-114.6-34.6-168.6-106.4-198.6-219.4-15.6-5.4-53-17.8-90-48.2 23.4 0 30.4-17.8 30.4-39v-40.8c0-21.4-17.4-39-39-39h-40.4c-21.4 0-39 12-39 33.4v13.2h-93.6c-7.6 0-21.6-8.6-21.6-23.8v-80.8c0-12.8 10.6-23.6 23.4-23.6h97.8zM752 314.667c-21.4-92.6 43.4-144.8 110.6-173.6-214.4-67.6-343.2 101.6-270.6 221.6-66.4-43.2-67.4-142.4-58.4-185.8-35.8 24.8-107.6 64.8-114.8 159.6-6 79.8 43 151.4 114 187.8 61.2 31.6 207 17 267.2-81.6-28.2 96-107.6 140.2-203.6 149.6 61.8 61.4 128.8 100.6 228.4 87.4 139.6-18.6 266.4-165.6 135.4-301 70 32.6 97.4 108.8 95 153.8l21-39.2c23.6-44 30.4-95.2 18.8-144-18.4-78-81.2-137.6-159.4-153-64.2-12.6-166.2 10.2-183.6 118.4zM256 522.667h-79.6c-17.8 0-32.4 14.6-32.4 32.4v79.2c0 17.8 14.6 32.4 32.4 32.4h79.6c17.8 0 32.4-14.6 32.4-32.4v-79.2c0-17.8-14.6-32.4-32.4-32.4zM20.2 602.667c-11.2 0-20.2 9-20.2 20.2v55.6c0 11.2 9 20.2 20.2 20.2h55.4c11 0 20.2-9 20.2-20.2v-55.6c0-11.2-9-20.2-20.2-20.2h-55.4zM336 653.267v42.8c0 10.2 8.4 18.6 18.6 18.6h42.8c10.2 0 18.6-8.4 18.6-18.6v-42.8c0-10.2-8.4-18.6-18.6-18.6h-42.8c-10.2 0-18.6 8.4-18.6 18.6zM112 467.667v-50c0-12.6-10.2-23-22.8-23h-50.4c-12.6 0-22.8 10.4-22.8 23v50c0 12.6 10.2 23 22.8 23h50.2c12.8 0 23-10.4 23-23z" />
<glyph unicode="&#xe938;" glyph-name="codepen" d="M1004.57 619.259l-468 312c-15.974 9.83-33.022 9.92-49.142 0l-468-312c-12-7.998-19.428-22.286-19.428-36.57v-311.998c0-14.286 7.428-28.572 19.43-36.572l468-312.044c15.974-9.83 33.022-9.92 49.142 0l468 312.044c12 7.998 19.43 22.286 19.43 36.572v311.998c-0.002 14.284-7.43 28.572-19.432 36.57zM556 812.405l344.572-229.716-153.714-102.858-190.858 127.43v205.144zM468 812.405v-205.144l-190.858-127.43-153.714 102.858 344.572 229.716zM88 500.403l110.286-73.714-110.286-73.714v147.428zM468 40.973l-344.572 229.716 153.714 102.858 190.858-127.43v-205.144zM512 322.689l-155.43 104 155.43 104 155.43-104-155.43-104zM556 40.973v205.144l190.858 127.43 153.714-102.858-344.572-229.716zM936 352.975l-110.286 73.714 110.286 73.714v-147.428z" />
<glyph unicode="&#xe939;" glyph-name="codiepie" horiz-adv-x="944" d="M845 532.867c61.4 0 67-106.2-0.6-106.2h-21.6v-88.6h-53.2v194.8h75.4zM944 233.467c-84.2-183.8-243.2-302.8-448-302.8-274 0-496 222-496 496s222 496 496 496c194.8 0 345.6-107.4 436.4-276.8l-372-217.6 383.6-194.8zM867 208.467l-120.6 61.4c-54.2-88.6-140.8-142.8-244.8-142.8-165 0-298.4 133.4-298.4 297.8 0 165 133.4 298.4 298.4 298.4 96.8 0 177.8-47 233.8-126.8l119 69.2c-81.4 125.2-209.4 200-358.4 200-242.4 0-439-196.6-439-439s196.6-439 439-439c157.2 0 293 84.2 371 220.8z" />
<glyph unicode="&#xe93a;" glyph-name="connectdevelop" horiz-adv-x="1152" d="M1101 456.667l-100.178 173.572c2.142 4.284 3.75 9.106 3.75 14.464 0 16.072-13.392 29.466-29.464 30.002l-110.894 191.786c1.072 3.214 2.142 6.428 2.142 9.642 0 17.142-13.928 30.536-30.536 30.536-9.642 0-17.678-4.286-23.572-11.25h-213.212c-5.358 6.962-13.394 11.248-23.036 11.248s-17.678-4.286-23.036-11.25h-212.142c-5.894 6.964-13.928 11.25-23.572 11.25-16.606 0-30.536-13.392-30.536-30.536 0-3.214 1.072-6.964 2.144-9.642l-111.966-194.466c-10.712-4.82-18.214-15-18.214-27.322 0-1.070 0.536-2.142 0.536-3.214l-106.608-184.286c-14.464-2.678-25.18-15-25.18-30 0-14.464 10.178-26.786 24.108-30l110.358-190.716c-1.072-3.214-1.608-5.892-1.608-9.642 0-14.464 10.178-26.786 24.108-29.464l103.394-179.464c-1.072-3.214-2.142-6.964-2.142-10.714 0-17.142 13.928-30.536 30.536-30.536 9.642 0 17.678 4.286 23.036 10.714h213.75c5.356-6.426 13.928-10.712 23.034-10.712s17.678 4.286 23.036 10.714h214.286c5.356-5.892 13.392-9.642 21.964-9.642 17.142 0 30.536 13.928 30.536 30.536 0 3.214-0.534 5.892-1.606 8.57l103.394 180.536c13.928 2.678 24.108 15 24.108 29.464 0 3.214-0.536 6.428-1.608 9.642l109.822 190.716c13.928 2.678 24.644 15 24.644 30-0.004 14.464-10.184 26.786-23.576 29.464zM307.070 37.203l-87.32 151.606h87.32v-151.606zM307.070 204.881h-87.32c-0.536 2.142-1.608 4.284-2.678 6.428l89.998 94.82v-101.248zM307.070 329.703l-100.714-106.608c-2.678 1.072-5.358 2.68-8.036 3.214l-111.426 192.858c1.070 2.678 1.070 5.358 1.070 8.036s0 4.82-0.536 6.964l103.93 180c5.358 0.536 10.714 2.144 15.536 5.358l100.178-103.93v-185.892zM307.070 534.347l-91.606 94.82c2.678 4.286 4.286 9.642 4.286 15.534 0 0.536-0.536 1.608-0.536 2.144l87.856 31.608v-144.106zM307.070 695.597l-87.32-31.608 87.32 151.072v-119.464zM960.108 617.381l1.608-2.678-70.716-334.286-127.5 134.464 196.072 203.036 0.536-0.536zM583.5 228.453l23.036-23.572h-45.536l22.5 23.572zM582.964 250.953l-166.606 170.892 159.106 168.75 166.072-175.178-158.572-164.464zM593.678 239.167l158.572 164.464 135-142.5-11.784-56.25h-248.038l-33.75 34.286zM820.822 849.881c2.142-1.072 4.284-2.144 6.964-2.68l115.714-201.428v-1.072c0-5.892 1.606-11.248 4.286-15.534l-195-202.5-166.070 175.178 234.106 248.036zM802.608 854.167l-227.144-240.536-114.108 120.536 332.678 120h8.574zM555.642 854.167c5.356-5.356 12.32-8.57 20.358-8.57s15 3.214 20.358 8.57h150l-296.786-107.142-101.786 107.142h207.856zM323.144 842.917l2.142 4.284c2.289 0.582 4.077 1.133 5.831 1.754l-0.473-0.146 102.322-107.68-109.822-39.642v141.43zM323.144 684.345l121.606 43.928 119.464-126.428-159.106-168.214-81.964 84.106v166.608zM323.144 498.989l72.856-75.536-72.856-76.608v152.144zM323.144 323.273l84.106 88.928 165.536-171.964-34.286-35.356h-215.356v118.392zM337.072-0.833c-3.214 3.214-6.964 5.356-11.786 6.964l-2.142 3.214v179.464h199.82l-183.214-189.642h-2.678zM596.894-0.833c-5.358 4.82-12.856 8.57-20.894 8.57s-15.534-3.75-20.894-8.57h-192.858l183.214 189.642h76.608l183.214-189.642h-208.39zM836.894 22.739l-8.572-15c-2.678-0.536-4.82-1.606-6.964-2.678l-178.392 183.75h228.752l-34.824-166.072zM862.606 67.203l25.716 121.606h43.928l-69.644-121.606zM932.25 204.881h-40.714l9.106 42.32 34.286-36.428c-1.070-1.606-2.142-3.748-2.678-5.892zM1064.572 419.703l-110.894-193.394c-2.678-1.070-5.358-2.142-8.036-3.748l-41.25 43.928 69.108 327.856 91.606-158.572c-0.534-2.678-1.606-5.356-1.606-8.57 0-2.678 0.536-4.822 1.072-7.5z" />
<glyph unicode="&#xe93b;" glyph-name="contao" d="M90.8 328.667c28.8-134.2 52.8-258 136.4-350h-159.2c-37.4 0-68 30.4-68 68v760c0 37.4 30.4 68 68 68h115.4c-27.6-25.2-52.2-54.4-73.8-87.2-90.8-140-54-293.6-18.8-458.8zM956 874.667h-180.4c42.8-42.8 78.4-99 105.4-168.2l-274.2-58.6c-29.8 58-75.6 106.6-165.2 87.8-49.2-10.6-82-38.6-96.6-69.2-17.6-37.4-26.4-79.6 16.4-280.6 42.2-200.4 67.4-235.4 99-262.4 25.8-22.2 66.8-34 116.6-23.4 89 18.8 111.4 81.4 114.8 146.4l274.8 59.2c6.4-143-37.4-250.4-114.8-327.2h104.2c37.4 0 68 30.4 68 68v760.2c0 37.6-30.4 68-68 68z" />
<glyph unicode="&#xe93c;" glyph-name="cpanel" horiz-adv-x="1280" d="M105.8 511.267h80l-12.4-47.2c-3.8-13-14.8-21.8-28.6-21.8h-37.2c-49.8 0-49.4-74.8 0-74.8h22.6c8.4 0 15.2-7.8 12.8-16.6l-14.2-52.2h-24.8c-67 0-118 62.8-100.6 130.4 14.6 54 56.6 82.2 102.4 82.2zM146.2 298.667l69.8 260.2c3.6 12.8 14.4 21.8 28.6 21.8h74c48.2 0 90.8-32.8 102-82.4 13.2-58.2-29-130.6-103.4-130.6h-64l12.8 47.6c3.6 12.4 14.6 21.6 28.6 21.6h20.6c24.8 0 41.6 23.4 36.6 45.2-4.2 18.4-19.8 29.6-36.6 29.6h-39.6l-51.6-191.4c-3.8-12.4-14.8-21.4-28.4-21.4l-49.4-0.2zM587.4 437.467c0.6 2 3.8 10.6-4.2 10.6h-115c-19.4 0-33.2 17.8-28.4 37l7 26.8h155.8c37.6 0 66.6-35.2 57-73.6l-28-103.6c-5.6-21.2-24.4-35.6-46.8-35.6l-115 0.4c-85.8 0-77 127.6 1.4 127.6h96.8l-7-26.4c-3.8-12.4-14.8-21.6-28.4-21.6h-43.2c-10.6 0-10.6-15.8 0-15.8h69.8c9.2 0 10.2 7.8 11 10.6l17.2 63.6zM793.6 511.267c68.8 0 118.6-64.6 100.6-130.8l-17.6-66.2c-2.4-9.8-11.4-15.6-20.6-15.6h-38.2c-9 0-15.2 8-12.8 16.6l21.2 80c6.6 23.2-11.2 46.8-36.2 46.8h-39.6l-34.4-128c-2.4-9.6-11.2-15.6-20.8-15.6h-37.8c-8.4 0-15.2 7.8-12.8 16.6l52.4 196h96.6zM996 435.467l-16-60c-1.8-6.6 3-13.4 10.2-13.4h146.6l-11.4-42c-3.8-12.4-14.8-21.4-28.4-21.4h-133.4c-40 0-66.6 38-56.6 73.4l21.6 80c9.6 35.2 41.4 59.2 77.2 59.2h94.6c38 0 66.4-35.4 56.6-73.6l-6.4-24c-5.8-22-25.4-35.2-46.4-35.2h-106.8l7 26c3.2 12.4 14.4 21.6 28.4 21.6h43.2c4 0 6.6 2 7.8 6l1.4 5.2c1.4 5.4-2.6 10.2-7.8 10.2h-65.8c-8.2 0-13.8-4.2-15.6-12zM1136.4 298.667l71.2 266.2c2.4 9.4 11 15.8 20.8 15.8h37.8c9 0 15.4-8 13-16.6l-53-196.4c-10.2-41.4-48.4-69-89.8-69z" />
<glyph unicode="&#xe93d;" glyph-name="creative-commons" horiz-adv-x="992" d="M509.6 509.067l-66.4-34.6c-18.8 39.2-50.4 39.8-55 39.8-44.2 0-66.4-29.2-66.4-87.6 0-47.2 18.4-87.6 66.4-87.6 29 0 49.4 14.2 61.2 42.6l61.2-31c-12.4-23-51.4-78-130.2-78-45.2 0-148 20.6-148 154.2 0 117.4 86 154.2 145.2 154.2 61.6-0.4 105.4-24.2 132-72zM795.8 509.067l-65.6-34.6c-19 39.6-51.4 39.8-55.8 39.8-44.2 0-66.4-29.2-66.4-87.6 0-47.2 18.4-87.6 66.4-87.6 29 0 49.2 14.2 61 42.6l62-31c-4.2-7.4-42.8-78-130.2-78-45.4 0-148 19.8-148 154.2 0 117.4 86 154.2 145.2 154.2 61.6-0.4 105.4-24.2 131.4-72zM495.2 922.667c283.6 0 496.8-220.2 496.8-496 0-294.2-237-496-496.8-496-268 0-495.2 219-495.2 496 0 265.8 209.4 496 495.2 496zM496.8 833.267c-236.4 0-407.4-195.8-407.4-406.6 0-219.6 182.4-405.6 407.4-405.6 206.4 0 405.6 162.2 405.6 405.6 0.2 227.6-180.4 406.6-405.6 406.6z" />
<glyph unicode="&#xe93e;" glyph-name="creative-commons-by" horiz-adv-x="992" d="M629.8 549.867v-202.8h-56.6v-241h-154.2v240.8h-56.6v203c0 8.8 3.2 16.4 9.2 22.6 6.2 6.2 13.8 9.4 22.6 9.4h203.8c8.2 0 15.6-3.2 22.2-9.4 6.2-6.4 9.6-13.8 9.6-22.6zM426.8 677.267c0 46.6 23 70 69 70s69-23.4 69-70c0-46-23-69-69-69s-69 23-69 69zM495.2 922.667c283.6 0 496.8-220.2 496.8-496 0-294.2-237-496-496.8-496-268 0-495.2 219-495.2 496 0 265.8 209.4 496 495.2 496zM496.8 833.267c-236.4 0-407.4-195.8-407.4-406.6 0-219.6 182.4-405.6 407.4-405.6 206.4 0 405.6 162.2 405.6 405.6 0.2 227.6-180.4 406.6-405.6 406.6z" />
<glyph unicode="&#xe93f;" glyph-name="creative-commons-nc" horiz-adv-x="992" d="M495.2 922.667c279.6 0 496.8-215.8 496.8-496 0-294.4-237-496-496.8-496-269 0-495.2 221.6-495.2 496 0 265.8 209.4 496 495.2 496zM111.6 560.467c-14.8-40.8-22.2-85.4-22.2-133.8 0-221.8 184.2-404.8 407.4-404.8 244.8 0 354.4 203.6 357 208.2l-186.8 83.2c-15.4-74.2-82.4-106-136.4-110.8v-76.2h-57.6v76.4c-55 0.6-105.2 20.4-150.6 59.4l68.2 69c63.4-58.8 172.8-63.6 172.8 4.4 0 12.4-4.4 22.4-13.2 30.2-28.4 12-3.6 0.2-438.6 194.8zM496.8 834.067c-76.8 0-224.8-17.4-341-186l189.6-85c20 62.6 80.8 85.8 127.6 88.6v76.2h57.6v-76.2c45.4-2.4 86.8-17.8 124-46l-64.6-66.4c-85.4 59.8-167 16-140-22.2 106.8-48.2 87.6-39.6 186-83.2l254.2-113.4c8.2 34.8 12.4 70.2 12.4 106.2 0 114-39.6 210-118.6 287.8-78.6 79.8-174.4 119.6-287.2 119.6z" />
<glyph unicode="&#xe940;" glyph-name="creative-commons-nc-eu" horiz-adv-x="992" d="M495.4 922.667c-288.2 0-495.4-233.6-495.4-496 0-272.6 223.4-496 495.4-496 260.4 0 496.6 201.8 496.6 496 0 278-215.2 496-496.6 496zM496.6 21.267c-224 0-407.2 185-407.2 405.4 0 46.4 7.4 90.4 21.8 132l131.4-58.2h-9.4v-59h46.6c0-12.4-0.8-6.4-0.8-39h-45.6v-59h54c22.8-134 134.4-202.6 249.2-202.6 53.2 0 101.2 15.8 129.6 31.6l-20 92.2c-17.4-9.2-56.4-21.6-94.6-21.6-56.4 0-116.2 21.8-134.6 100.4h180.6l256.6-113.6c-3-4.2-112.4-208.6-357.6-208.6zM463.2 402.467l-1 0.8 1.8-0.8h-0.8zM617.6 441.467h7.4v59h-140.6l-57.2 25.2c5 11 10.8 21 17.6 28.6 25.8 31.6 62.2 44.8 102.2 44.8 36.6 0 70.6-10.8 92.2-20l23.2 94.6c-30 13.2-74 24.8-124.6 24.8-78 0-144.4-31.6-191.8-84.6-10.6-12.2-19.6-25.8-27.8-40.2l-163.2 72.2c129.2 193.6 315.4 187.2 341.4 187.2 226 0 406-180.4 406-406.8 0-37.4-4.2-72.6-12.6-105.8l-272.2 121z" />
<glyph unicode="&#xe941;" glyph-name="creative-commons-nc-jp" horiz-adv-x="992" d="M495.4 922.667c-288.2 0-495.4-233.6-495.4-496 0-272.8 223.6-496 495.4-496 260.4 0 496.6 201.6 496.6 496 0 277.6-215 496-496.6 496zM496.6 21.267c-224 0-407.2 185-407.2 405.4 0 42.2 6 82.4 18 120.6l254-113h-55.8v-77.2h116.2l11.4-23.6v-37.4h-127.6v-77.4h127.6v-112h123.4v112h128.4v71.4l162-72.2c-3-4.4-114.2-196.6-350.4-196.6zM671.8 295.867h-115.2v37.4l5.8 11.2 109.4-48.6zM684.8 398.667v35.6h-77.2l126 232h-131.6l-86.8-192-46 20.4-79.2 171.4h-131.6l54.6-102-163.8 73c55.6 88.2 165.2 196.2 347.4 196.2 225.6 0 406-180 406-406.8 0-42-5.4-81.2-15.8-118l-202 90.2z" />
<glyph unicode="&#xe942;" glyph-name="creative-commons-nd" horiz-adv-x="992" d="M495.2 922.667c283.6 0 496.8-220.2 496.8-496 0-294.2-237-496-496.8-496-268 0-495.2 219-495.2 496 0 265.8 209.4 496 495.2 496zM496.8 833.267c-236.4 0-407.4-195.8-407.4-406.6 0-219.6 182.4-405.6 407.4-405.6 206.4 0 405.6 162.2 405.6 405.6 0.2 227.6-180.4 406.6-405.6 406.6zM684.8 544.667v-85h-360.6v85h360.6zM684.8 385.067v-85h-360.6v85h360.6z" />
<glyph unicode="&#xe943;" glyph-name="creative-commons-pd" horiz-adv-x="992" d="M496 922.667c-274 0-496-222.2-496-496 0-274 222-496 496-496s496 222 496 496c0 273.8-222 496-496 496zM496 23.667c-278.4 0-471.6 276-380.4 535.8l157.6-70.2c-4.2-21-6.6-43-6.6-65.8 0-198 147.8-253.8 240.8-253.8 45.8 0 107 13.4 158.8 59l-72.2 87.8c-11-12.6-35.2-33.4-72.6-33.4-75.6 0-107.4 79.8-107.8 143.8 460.8-205.2 433-193 435.8-193.6-68.6-124.8-201.2-209.6-353.4-209.6zM884.4 323.667l-448 200c37.6 68 109.8 61.4 149.4 22l80.8 83.2c-54.2 46.6-116 55-156.2 55-94.8 0-161.8-41-201.4-103.2l-149.8 66.8c72.2 109.8 196.2 182.4 337 182.4 222.2 0 403-180.8 403-403 0-36-4.8-70.8-13.6-104-0.6 0.2-0.8 0.4-1.2 0.8z" />
<glyph unicode="&#xe944;" glyph-name="creative-commons-pd-alt" horiz-adv-x="992" d="M495.2 922.667c283.6 0 496.8-220.2 496.8-496 0-294.2-237-496-496.8-496-268 0-495.2 219-495.2 496 0 265.8 209.4 496 495.2 496zM496.8 833.267c-236.4 0-407.4-195.8-407.4-406.6 0-219.6 182.4-405.6 407.4-405.6 206.4 0 405.6 162.2 405.6 405.6 0.2 227.6-180.4 406.6-405.6 406.6zM271 292.067v274.6h136.4c67.4 0 101-31 101-93 0-18-6-93-114.2-93h-54v-88.6h-69.2zM339.2 515.267v-83.2h58.4c55.8 0 60 83.2-1.8 83.2h-56.6zM527 292.067v274.6h106.4c42.8 0 140-10.4 140-137.2 0-127-97.2-137.2-140-137.2h-106.4zM595.2 509.067v-159.4h39.8c48 0 69 30.6 69 79.8 0 84-62.4 79.8-70 79.8l-38.8-0.2z" />
<glyph unicode="&#xe945;" glyph-name="creative-commons-remix" horiz-adv-x="992" d="M495.2 922.667c283.6 0 496.8-220.2 496.8-496 0-294.2-237-496-496.8-496-268 0-495.2 219-495.2 496 0 265.8 209.4 496 495.2 496zM496.8 833.267c-236.4 0-407.4-195.8-407.4-406.6 0-219.6 182.4-405.6 407.4-405.6 206.4 0 405.6 162.2 405.6 405.6 0.2 227.6-180.4 406.6-405.6 406.6zM820.2 417.867l9.8-4.4v-140c-14.4-7.2-126.8-55-134.6-57.6-13 3.6-227.4 93.6-274.6 112.4l-128.4-53.2-126.6 55v127.6l118.6 49.6c-1.4 1.4-0.8-10-0.8 140.8l134.6 59.4 303.8-125.8v-123.2l98.2-40.6zM679.4 254.867v87.6h-0.8v3.6l-227.6 93v-90.4l227.6-93.8v0.8l0.8-0.8zM694.4 370.067l79.8 32.8-73.6 31-78-32.8 71.8-31zM799 293.867v86l-88.6-37.2v-86.8l88.6 38z" />
<glyph unicode="&#xe946;" glyph-name="creative-commons-sa" horiz-adv-x="992" d="M495.2 922.667c283.6 0 496.8-220.2 496.8-496 0-294.2-237-496-496.8-496-268 0-495.2 219-495.2 496 0 265.8 209.4 496 495.2 496zM496.8 833.267c-236.4 0-407.4-195.8-407.4-406.6 0-219.6 182.4-405.6 407.4-405.6 206.4 0 405.6 162.2 405.6 405.6 0.2 227.6-180.4 406.6-405.6 406.6zM275.4 496.667c26 167.8 161 191.4 217.8 191.4 199.6 0 255-165 255-268.4 0-127.2-82-265.8-257.8-265.8-77.8 0-198.2 40-218.8 194h125c3-60.2 39.2-90.4 109-90.4 46.6 0 116 36.4 116 165.6 0 165-98.2 161.2-113.4 161.2-66.2 0-103.4-29.2-111.6-87.6h36.4l-98.4-98.4-98 98.4h38.8z" />
<glyph unicode="&#xe947;" glyph-name="creative-commons-sampling" horiz-adv-x="992" d="M495.2 922.667c283.6 0 496.8-220.2 496.8-496 0-294.2-237-496-496.8-496-268 0-495.2 219-495.2 496 0 265.8 209.4 496 495.2 496zM496.8 833.267c-236.4 0-407.4-195.8-407.4-406.6 0-219.6 182.4-405.6 407.4-405.6 206.4 0 405.6 162.2 405.6 405.6 0.2 227.6-180.4 406.6-405.6 406.6zM504 726.867c5.6 0.6 23-2 23-23l13.2-214.4 9.8 118.6c0 12 9.4 21.2 21.2 21.2s21.2-9.4 21.2-21.2c0-5-1 11.4 11.4-163l11.6 128.4c0.6 5.8 5.8 18.6 20.4 18.6 7.6 0 19.8-4.6 21.2-17.8l23-193 10.6 25.6c3.6 8.8 10.4 13.2 20.4 13.2h116v-42.6h-101.8l-36.4-88.6c-7.8-19.8-39-18.2-41.6 6.2l-8 63.8-15-185.2c-0.6-6-6-18.6-20.4-18.6-6 0-19.6 4.2-21.2 18.6 0 3.8 1.2-11.6-12.4 155.8l-10.6-144.4c-2.2-9.6-9.6-18.6-21.2-18.6-5.8 0-19.6 4-21.2 18.6 0 3.8 1-13.4-11.6 175.4l-11.6-189.6c0-12.6-7.2-24.8-21.2-24.8-10.4 0-21.2 8.2-21.2 24l-11.6 175.4c-11.6-185-10.6-168-10.6-171.8-2.2-9.6-9.6-18.6-21.2-18.6-6 0-19.6 4.2-21.2 18.6 0 1.4-0.8 2.2-0.8 5.2l-12.4 177.2-9.8-113.4c-1.4-13-13.4-18.6-21.2-18.6-11.6 0-19.2 8.2-21.2 17.8l-22.2 152.8c-4-8-7-16.8-22.2-16.8h-102.8v42.6h89.6l27.4 55.8c8.8 19.8 36.4 14.4 39.8-5.4l6.2-40.8 16.8 195.8c0 12 9.6 21.2 21.2 21.2 1 0 21.2 0.4 21.2-24.8l9.8-138.2 13.2 185.2c0 20.2 19 21.2 20.4 21.2 1.2 0 21.2-1.4 21.2-21.2l10.6-161.2 12.4 195.8c0.2 2.2-1.2 20.6 19.8 23z" />
<glyph unicode="&#xe948;" glyph-name="creative-commons-sampling-plus" horiz-adv-x="992" d="M495.2 922.667c283.6 0 496.8-220.2 496.8-496 0-294.2-237-496-496.8-496-268 0-495.2 219-495.2 496 0 265.8 209.4 496 495.2 496zM496.8 833.267c-236.4 0-407.4-195.8-407.4-406.6 0-219.6 182.4-405.6 407.4-405.6 206.4 0 405.6 162.2 405.6 405.6 0.2 227.6-180.4 406.6-405.6 406.6zM710.8 422.067c-9.4 0-18-5.6-21.4-14.4l-8-19-22 185.6c-3.4 27.8-44 26.8-46.2-0.8l-8.6-102.8-10.4 137.6c-2.2 28.6-44.2 28.4-46.4 0l-7-89.8-11.8 188.6c-1.8 29-44.6 28.8-46.4 0l-10.2-167.4-8.6 132.6c-1.8 28.8-44.4 28.8-46.4 0l-10.6-160.4-8.2 114c-2.2 28.6-44 28.6-46.4 0.4l-15.4-179.6-3.6 24.4c-3.4 22.8-34.2 27.2-44 6.6l-26.4-55.4h-87.8v-46.4h102.6c8.8 0 16.8 5 20.8 12.8l21.4-146.2c4-27 43.8-26 46.2 1.4l7.6 87.2 11.4-156.6c2.2-28.8 44.6-28.4 46.4 0.2l9.2 140.8 9.6-146.6c1.8-28.8 44.6-28.8 46.4 0.2l9.8 161 9-143.6c1.8-28.6 44.2-29 46.4-0.4l9.2 117.2 9.8-128.8c2.2-28.6 44-28.4 46.2-0.2l13.6 166 5.4-44.6c2.8-23.6 35.4-28.2 44.6-6.2l36 86.8h101v46.4l-116.8-0.6zM554.8 411.667h-43.8v-43.8c0-8.2-6.6-15-15-15-8.2 0-15 6.6-15 15v43.8h-43.8c-8.2 0-15 6.6-15 15 0 8.2 6.8 15 15 15h43.8v43.8c0 8.2 6.8 15 15 15s15-6.6 15-15v-43.8h43.8c8.2 0 15-6.6 15-15 0-8.2-6.8-15-15-15z" />
<glyph unicode="&#xe949;" glyph-name="creative-commons-share" horiz-adv-x="992" d="M495.2 922.667c283.6 0 496.8-220.2 496.8-496 0-294.2-237-496-496.8-496-268 0-495.2 219-495.2 496 0 265.8 209.4 496 495.2 496zM496.8 833.267c-236.4 0-407.4-195.8-407.4-406.6 0-219.6 182.4-405.6 407.4-405.6 206.4 0 405.6 162.2 405.6 405.6 0.2 227.6-180.4 406.6-405.6 406.6zM698.8 568.467c15.6 0 27.4-12.2 27.4-27.4v-365c0-15.4-12.2-27.4-27.4-27.4h-270.2c-15.4 0-27.4 12-27.4 27.4v108h-108c-15.6 0-27.4 12-27.4 27.4v365c0 16.4 13.2 25.4 24.8 27.4h272.8c15.4 0 27.4-12 27.4-27.4v-108h108zM319.8 338.067h81.4v202.8c0 14.8 11.6 25.2 24 27.4h111.6v80.6h-217v-310.8zM672.2 514.267h-217v-310.8h217v310.8z" />
<glyph unicode="&#xe94a;" glyph-name="css3" d="M960 874.667l-128-736-446.6-160-385.4 160 39.2 189.6h164l-16-81.2 232.8-88.8 268.2 88.8 37.6 194.2h-666.8l32 164h667.4l21 105.4h-666.8l32.6 164h814.8z" />
<glyph unicode="&#xe94b;" glyph-name="css3-alt" horiz-adv-x="768" d="M0 874.667l69.8-791.6 314.2-104.4 314.2 104.4 69.8 791.6h-768zM626.2 714.667l-9.6-94.6-231.2-98.8h223l-25.6-293.2-196.4-57.4-197.6 58.4-12.8 147.8h97.8l6.4-76.6 105.2-26.6 109.4 30.8 7.4 123.2-333 1-7.2 92.6 237.2 98.8h-245.8l-11.6 94.6h484.4z" />
<glyph unicode="&#xe94c;" glyph-name="cuttlefish" horiz-adv-x="880" d="M688 327.667c-35-63.2-114.8-109-192-109-113.2 0-208 94.8-208 208s94.8 208 208 208c77.2 0 157-45.8 192-109 27.4 101.8 83.4 186.6 174 235.6-90.6 99.2-221 161.4-366 161.4-274 0-496-222-496-496s222-496 496-496c145 0 275.4 62.2 366 161.4-90.6 49-146.6 133.8-174 235.6z" />
<glyph unicode="&#xe94d;" glyph-name="d-and-d" horiz-adv-x="1152" d="M165 740.867c-1.2 34.4 4 67.6 25.4 96.4 0.6-14.8 2.4-29 8.4-43.2 11.8 55 39.4 98.6 84.6 131-3.8-11.8-7-23.6-6-35.4 17.4 14.8 37.6 35.6 88.8 45.4 29.4 5.6 59.4 4 84.2-2 77-18.6 122-68.6 139.4-144.6 10.6-46.2 1.4-90-16.6-132.8-10.4-24.8-24-48.8-41.4-70.2-4 3.8-7.8 7.6-11.6 11.2-85.6 81.6-53.6 50.4-74.8 74.8-2.2 2.4-2 4.4-0.2 7.2 16.6 27 23.6 56.4 20 88-2.2 19.6-8.6 37.8-22.6 52.4-29 30.6-78.4 30-107-1.2-22.8-25-28.2-54.8-21.8-87.2 0.4-2.6 0.8-5.4 0-7.8-6.8-27.4-9.2-55.2-5-83.2 0.2-1 0.2-2.2 0.2-3.2 0-0.6-0.2-1-0.4-2.2-43.6 22-72 56.6-86.4 104.4-16.6-35.6-22.2-71-13.2-108.2-31.2 30.4-42.6 68.6-44 110.4zM1104.2 494.467c-23.2 23.2-50 40.8-80.2 53.2-25.6 10.4-52 15.8-79.8 14.2-20-1.2-39.2-6.2-58-12.8-5-1.8-10.2-3.2-15.4-4.4-9.8-2.4-14.6 6.2-9.4 13.6 6.4 9.2 6.8 8.4 30 24 1.2 0.8 2.4 1.6 4.4 3h-5c-1.2 0-2.4-0.4-3.8-0.6-38.6-6.6-61.4-31-97.8-59.2-20.8-16.2-27.6-7.6-24 1 2.8 7 6.6 13.4 10.2 20 2 3.6 4.6 6.8 7 10.2-0.4 0.4-1 0.6-1.4 1-54-36.6-93.4-84.8-115.4-146.6 0.6-0.6 1.4-1.2 2-1.8 0.6 1.2 1 2.4 1.8 3.4 20.8 24.2 45.6 43.6 73.2 59.6 36.4 21.2 75 36.6 117.4 40.4 8.6 0.8 17.4 0.2 26.2 0.2-3.6-1.4-7-1.8-10.6-2.2-37-4.8-71-18-103-37-60.4-35.8-109-84.4-150.2-140.8-0.6-0.8-0.8-1.8-1.4-2.6 29-10.6 48-34.6 72.2-51.2 0.4 0.2 0.6 0.4 0.8 0.8l2.4 5.4c24.4 53.8 54 104.6 93.4 149 33.4 37.6 76 50.6 125 40 11.8-2.6 22.8-8.8 34.4-13.6 4.6 2.8 10.2 6.4 16 9.4 16.8 8.6 34.8 14 53.4 18 29.4 6.2 59 9.8 89 2.6v1c-1 0.8-2.4 1.6-3.4 2.8zM633.4 143.467c-78.8 66-45.6 39-85.4 71.2-1.6-1.8 0 0.4-3.8-6-22.4-38.2-51-70.6-88-95.2-20.6-13.6-43-23.6-68.2-23.6-43.2 0-76.4 19-98.8 55.6-24 39-26.6 81.4-16.4 125.2 15.6 67.6 60.2 110.4 77.2 128.6-37.4 12.4-66-3.4-92.8-27.8 1.6 27.8 8.6 52.4 23.6 74.6-48.6-21.2-91.8-50-129.6-87.8-0.6 11.6 10.8 87.4 11.2 89.4 0.6 5.4-1.2 10.6-6 14.8-48.4-49.4-89-103.6-112.2-169.2 14.8 11.8 29.8 22.8 47.2 32.4-16.6-44.6-39.2-105.6-15.6-202.2 9.2-38 23.8-73.6 48.2-104.6 5.8-7.4 12.6-13.8 19-20.6 0.4 0.4 0.8 0.6 1.2 1-2.8 14-4.4 28.2-3 43.8 4.4-6.4 7.8-12 11.8-17.2 25.2-32 57.4-54.8 94.4-71.2 50-22.6 102.2-26.6 155.8-17.2 109.8 19.4 181.4 97.2 232 197.6 2 3.6 1.2 5.8-1.8 8.4zM977.4 236.267c-19 6.2-44.4 8.4-57.4 5.8 19.8-8 28.2-13.2 37.6-24 25.2-28.8 20.8-69.4-10.8-91.2-23.4-16.2-49.8-21-77.8-18.2-2.4 0.2-4.6 0.8-6 1.2 5.6 7.4 12 14 16.2 21.6 18.8 33.6 10.8 84.2-17.4 112.2-4.2 4.2-9.2 7.8-14 11.8-0.6-2.6-0.2-4.2 0.2-5.6 8.4-33.2-16.2-64.8-49.6-63.6-15.2 0.6-27.8 7.6-39.2 17-39 32.2-78.2 64.2-117 96.6-11.8 9.8-25 16.2-40.2 17.4-9.2 0.8-18.6 1.2-27.8 1.8-11.8 0.8-17.6 5.6-20.8 16.8-1.8 6.8-3 13.6-4.4 20.4-3 16.2-12.4 26-28.6 28.4-8.8 1.4-17.8 2-26.6 3-26 2.8-39.6 14.8-45.2 40.6-10-22-3.2-44.8 14.6-59.8 9-7.6 18.6-14.6 27.6-22.4 9.2-7.6 14.8-17.4 15.8-29.6 0.8-9.4 1.6-19 3.6-28.2 4.4-21.2 17.8-36.8 34-50.2 33-27.4 66-54.6 99-82.2 35.8-30 27.8-65.6 26-112-1.8-45.8 24.4-85.8 67-102.4 2-0.8 4-1.2 7.2-2.2-31.4 36.4-20.2 88.2 1.4 104.6 0.6-4.4 0.8-8.6 1.8-12.8 18.8-88.2 90.8-128.4 170-113.8 32 5.8 61.2 17.8 85.8 39.6 4 3.6 7.4 8.2 11.8 13-38.6-9.2-71.6-0.2-101.8 21.2 1.4 0.6 2.6 0.6 3.8 0.6 42.6-3.6 81.2 6.8 114 34.8 39 33.2 53.2 85.8 34.8 132-16.6 40.2-47.2 64.6-87.6 77.8zM198.8 580.067c-10.6 18.4-26.4 31.2-44.2 42.6 27.4 1 53.2-0.4 79.2-7.4-14 24.4-17 49.4-10 77.4 10.6-23.8 27.4-40.2 47.2-53.6 39.4-26.4 71.4-39.2 93.4-60.4 6.8-6.6 12.6-14.2 19.2-21.8-1.6 4.2-2.8 8.2-4.4 12-10 21.2-26 37.2-45.2 50-3.6 2.4-5.6 5-6.8 9-6.6 25-6 50.2-1.4 75.2 2 11 5.6 21.8 9 32.6 1.6 4.8 4.6 9.2 8 13.2 1.2-13.8 0-51 39.2-92 21.6-22.6 44.8-43.8 67.8-65.4 18-17 36.6-33.4 51-53.6 2.2-3.2 4.4-6.6 7.6-9.4-10 26-28.4 48.2-48.4 67.6-19.2 18.6-38.8 36.8-58.4 54.8-6.6 6-9.2 13.4-10.2 21.8-2.4 20.8 0 41.2 8.6 60.4 1 2 2.2 4 3.8 6.6 1-8.4 1.2-15.8 2.8-23.2 9.6-46.2 40.8-72.6 98.6-127 20-18.8 38.6-38.4 51.2-63.2 9.6-18.6 14.6-38 11.4-59.2-0.2-1.2 1-3.4 2.2-4 12.4-5.2 20-13.8 19.4-28.6 15.4 5.2 25 16 32.8 29 8.4-40.4-18.2-100.6-54.4-117.4 0.8 9 10 46.8-33 55.4-13.6 2.6-25.6 2.6-45.8 4.2 9.4 18 20.8 41.2 1 44.8-49.8 9.2-105.6-3.8-115.6-9.2 16.4-0.8 32.6-2 47-6.6-4-13-8-25.4-11.6-37.8-3.8-13 4.2-29.2 18.6-19.2 2.4 1.8 4.6 3.8 6.6 5.4-6.2-35.8-5.8-31.8-5.6-36.6 0.6-20.4 19-15.6 31.4-14.6-5-23.6-59-54.6-90.8-51.6 14 9.4 25.4 20.6 31.8 35.8-13-1.6-25.8-3.2-38.4-4.8l-0.6 1.8c9.4 6.8 16 15.6 20.4 26.2 17.4 42.2-7.2 76-50 79.8-18.2 1.6-35.6-1.6-51.8-11 12.4 31.2 34.4 53.2 65.2 69-30.4 8.6-17.8 5.4-49.2 12.6 29.2 18.6 60.4 26.4 93 29.2-10.4 6.4-96.2 7.2-140.4-41.8 15.8-2.8 31-5.6 46.4-8.4-47.6-14-88-39.4-124.8-71.2 2.2 9.6 5.4 19 6.6 28.6 1.2 9 1.6 18.4 0.2 27.2-3 18.8-17.8 30.2-39.4 32.6-15.8 1.8-31.2-0.2-46.6-2.6-1.8-0.2-3.4-0.6-5.8 0 31.6 29.6 72 43.4 106.2 67 12 9 13.6 16.4 6 29.8zM455.6 526.467c6.6-32 25.2-51 47.6-48.6-9.2 22.6-24.2 39-47.6 48.6z" />
<glyph unicode="&#xe94e;" glyph-name="dashcube" horiz-adv-x="896" d="M653.2 730.667h-432.4c-102.2 0-182.4-86.6-182.4-187v-459c0-101 80.2-170 182.4-170h454.4c102.2 0 182.4 69 182.4 170v854l-204.4-208zM307.8 105.667c-35.4 0-64.8 30.2-64.8 65.6v285.8c0 35.4 29.4 65 64.8 65h281.4c35.4 0 64-29.6 64-65v-247l102.2-104.6h-447.6z" />
<glyph unicode="&#xe94f;" glyph-name="delicious" horiz-adv-x="896" d="M893 802.667c-0.8 3-1.8 6-2.8 9-1.8 5-4 9.6-6.6 14.2-2.8 4.8-6 9.6-9.4 13.8-4.2 5-8.8 9.6-13.8 13.6-2.2 1.8-4.4 3.4-6.6 5-2.6 1.8-5.2 3.4-8 4.8-3.6 2-7.2 3.6-11 5-3.4 1.4-7 2.6-10.8 3.4-7.6 2-15.8 3-24 3h-704c-53 0.2-96-42.8-96-95.8v-704c0-8.2 1-16.4 3-24 4-15.4 11.6-29.2 22-40.6 2-2.2 4.2-4.4 6.6-6.6 11.4-10.4 25.2-18 40.6-22 7.6-2 15.8-3 24-3h704c53 0 96 43 96 96v704.2c-0.2 8.2-1.2 16.4-3.2 24zM832 74.667c0-17.6-14.4-32-32-32h-352v384h-384v352c0 17.6 14.4 32 32 32h352v-384h384v-352z" />
<glyph unicode="&#xe950;" glyph-name="deploydog" d="M764.4 666.667h103.4v-479.2h-103.4v41.4c-39.6-49.6-105.6-48.2-147.6-29.4-52.4 23.4-88.6 76.2-88.6 143.6 0 59.6 29.6 115.8 86.6 141.6 40.4 18.2 105.4 21.2 149.6-25.8v207.8zM635 343.067c0-36.4 27.2-67 66.4-67 39.6 0 66.4 32.8 66.4 65.8 0 34.2-27.4 66.4-66.4 66.4-39.2 0-66.4-32.8-66.4-65.2zM377 666.667h103.4v-479.2h-103.4v41.4c-39.6-49.6-105.6-48.2-147.6-29.4-52.4 23.4-88.6 76.2-88.6 143.6 0 59.6 29.6 115.8 86.6 141.6 40.4 18.2 105.4 21.2 149.6-25.8v207.8zM247.6 343.067c0-36.4 27.2-67 66.4-67 39.6 0 66.4 32.8 66.4 65.8 0 34.2-27.4 66.4-66.4 66.4-39.4 0-66.4-32.8-66.4-65.2zM896 746.667c35 0 64-28.8 64-64v-512c0-35-28.8-64-64-64h-768c-35 0-64 28.8-64 64v512c0 35 28.8 64 64 64h768zM896 810.667h-768c-70.4 0-128-57.6-128-128v-512c0-70.4 57.6-128 128-128h768c70.4 0 128 57.6 128 128v512c0 70.4-57.6 128-128 128z" />
<glyph unicode="&#xe951;" glyph-name="deskpro" horiz-adv-x="960" d="M411.8-85.333l62.2 76.8c24.6 0.4 51.2 2.8 73 13.2 77.8 37.2 76.8 123.8 76.6 127.6-0.2 10-1.6 8.8-57.8 74.8h158.2c-0.4-100.2-14.6-137-20.4-151.4-18.8-47.4-87.8-125.6-190.4-138.8-17.4-2.2-65.6-2.4-101.4-2.2zM812.6 250.067c77.2 0 117 27.2 147.4 61.8l-351 0.6-34.8-62.6 238.4 0.2zM725.4 697.867v-336.6h-147l-65.4-111h-13c-104.6 0-116.2 113-116.6 117.8-2.4 26.4-42.6 23.2-40.2-3.6 2.8-31.6 17.6-80 52.8-114.2h-182c-51 0-221.6 53.6-214 228v426.6c0 32 19.4 33.2 30 33.6h164c0.4 0 0.6-0.2 1-0.2 8.6 0.8 100.2 4.2 100.2-87.4 0-26.6 40.4-26.8 40.4 0 0 36.4-11 65.6-31.6 87.4h168.4c217.4 0.8 253-158.8 253-240.4zM460.4 585.867l128-58.6c26.6 91-84.4 143.4-128 58.6z" />
<glyph unicode="&#xe952;" glyph-name="deviantart" horiz-adv-x="640" d="M640 752.267l-196.4-358.2 14.8-19h181.6v-255.4h-321.8l-27-18.4-87.4-168c-0.6 0-17.2-17.2-18.4-18.4h-185.4v186.4l186.4 358.8-14.8 18.4h-171.6v255.2h312l27 18.4 87.4 168c0.6 0 17.2 17.2 18.4 18.4h195.2v-186.2z" />
<glyph unicode="&#xe953;" glyph-name="digg" d="M163.4 594.067h-163.4v-348.8h265.4v501.4h-102v-152.6zM163.4 327.267h-61.6v184.6h61.6v-184.6zM757.8 594.067v-348.8h163.6v-57h-163.6v-81.6h266.2v487.4h-266.2zM921.4 327.267h-61.6v184.6h61.6v-184.6zM450.2 245.267h164.2v-57h-164.2v-81.6h266.6v487.4h-266.6v-348.8zM552.6 511.867h61.6v-184.6h-61.6v184.6zM306.6 746.667h102.6v-102h-102.6v102zM306.6 594.067h102.6v-348.8h-102.6v348.8z" />
<glyph unicode="&#xe954;" glyph-name="digital-ocean" d="M512-69.333v192.2c203.6 0 361.6 201.8 283.4 416-28.6 79.2-92.2 142.8-171.6 171.4-214.2 77.6-416.2-79.8-416.2-283.4h-191.6c0 324.4 313.8 577.4 654 471.2 148.4-46.6 267.2-164.8 313.2-313.2 106.4-340.6-146-654.2-471.2-654.2zM512.6 313.467h-191.2v-191.2h191.2v191.2zM321.4 122.267h-147.4v-147.2h147.4v147.2zM174 245.467h-123.2v-123.2h123.2v123.2z" />
<glyph unicode="&#xe955;" glyph-name="discord" horiz-adv-x="896" d="M594.432 452.267c0-31.232-23.040-56.832-52.224-56.832-28.672 0-52.224 25.6-52.224 56.832s23.040 56.832 52.224 56.832c29.184 0 52.224-25.6 52.224-56.832zM355.328 509.099c-29.184 0-52.224-25.6-52.224-56.832s23.552-56.832 52.224-56.832c29.184 0 52.224 25.6 52.224 56.832 0.512 31.232-23.040 56.832-52.224 56.832zM896 833.195v-918.528c-128.988 113.988-87.736 76.256-237.568 215.552l27.136-94.72h-580.608c-57.856 0-104.96 47.104-104.96 105.472v692.224c0 58.368 47.104 105.472 104.96 105.472h686.080c57.856 0 104.96-47.104 104.96-105.472zM750.080 347.819c0 164.864-73.728 298.496-73.728 298.496-73.728 55.296-143.872 53.76-143.872 53.76l-7.168-8.192c87.040-26.624 127.488-65.024 127.488-65.024-121.622 66.658-264.488 66.67-382.464 14.848-18.944-8.704-30.208-14.848-30.208-14.848s42.496 40.448 134.656 67.072l-5.12 6.144s-70.144 1.536-143.872-53.76c0 0-73.728-133.632-73.728-298.496 0 0 43.008-74.24 156.16-77.824 0 0 18.944 23.040 34.304 42.496-65.024 19.456-89.6 60.416-89.6 60.416 7.532-5.272 19.952-12.106 20.992-12.8 86.42-48.396 209.176-64.252 319.488-17.92 17.92 6.656 37.888 16.384 58.88 30.208 0 0-25.6-41.984-92.672-60.928 15.36-19.456 33.792-41.472 33.792-41.472 113.152 3.584 156.672 77.824 156.672 77.824z" />
<glyph unicode="&#xe956;" glyph-name="discourse" horiz-adv-x="896" d="M451.8 874.667c-245.2 0-451.8-197-451.8-440.2 0-7.8 0.2-455.8 0.2-455.8l451.6 0.4c245.4 0 444.2 204.6 444.2 447.8s-198.8 447.8-444.2 447.8zM448 170.667c-38.8 0-75.8 8.6-108.8 24.2l-162.2-40.2 45.8 150c-19.6 36.2-30.8 77.8-30.8 122 0 141.4 114.6 256 256 256s256-114.6 256-256-114.6-256-256-256z" />
<glyph unicode="&#xe957;" glyph-name="dochub" horiz-adv-x="832" d="M795.8 618.667h-283.8v280.8l283.8-280.8zM608 554.667v-260c0-133.6-73-200.2-226.6-200.2h-189.4v674.6h189.4c24 0 46.2-1.6 66.2-5v168c-21.8 4.4-44.8 6.6-69.2 6.6h-378.4v-1024h378.4c281 0 421.6 129.2 421.6 387.8v252.2h-192z" />
<glyph unicode="&#xe958;" glyph-name="docker" horiz-adv-x="1280" d="M699.8 466.067h-132.2v118.8h132.2v-118.8zM699.8 874.667h-132.2v-121.4h132.2v121.4zM856.2 585.067h-132.2v-118.8h132.2v118.8zM543.6 729.267h-132.2v-120.2h132.2v120.2zM699.8 729.267h-132.2v-120.2h132.2v120.2zM1253.4 529.267c-28.8 19.4-95.2 26.4-146.2 16.8-6.6 48-33.4 89.8-82.2 127.4l-28 18.6-18.6-28c-36.8-55.6-46.8-147.2-7.4-207.6-17.4-9.4-51.6-22.2-96.8-21.4h-869.4c-17.4-101.6 11.6-233.6 88-324.2 74.2-87.8 185.4-132.4 330.8-132.4 314.8 0 547.8 145 656.8 408.4 42.8-0.8 135.2-0.2 182.6 90.4 3 5 13.2 26.4 17 34.2l-26.6 17.8zM231.2 585.067h-132v-118.8h132.2v118.8zM387.4 585.067h-132.2v-118.8h132.2v118.8zM543.6 585.067h-132.2v-118.8h132.2v118.8zM387.4 729.267h-132.2v-120.2h132.2v120.2z" />
<glyph unicode="&#xe959;" glyph-name="draft2digital" horiz-adv-x="960" d="M739.8 87.867v108.8l94.2-54.4-94.2-54.4zM164.8 177.467c51 54.6 195.4 209.4 301.8 340 70.2 86.2 80.6 164.8 56.8 225.4-14.8 37.6-35 60.4-48.6 71.4 90.6-4.2 136-46.8 164.4-76.6 0 0 84.8-96.4 11.6-226.6-74-131.8-221.8-295-257-333.4h-229zM268.4 615.867c0-24.8-20-44.8-44.8-44.8s-44.8 20-44.8 44.8c0 24.8 20 44.8 44.8 44.8s44.8-20.2 44.8-44.8zM672 306.867v-129.4h-182.6c61.6 70 163.6 191.8 223.6 298.6 70.4 125.2 32.2 246.8-25.6 306.6-8.8 9.2-124.4 125.8-332 82.4-118.2-24.8-178.8-86.8-208.6-134.6-26.2-41.8-34-79.6-36.4-95.4-11-66 38.8-134.2 113.4-134.2 63.4 0 114.6 51.4 114.6 114.8 0 54.2-39.4 104.2-96 113.6 3.6 14.6 35.4 42.2 52.6 49.4 82.2 34.6 156-10.4 166.6-67 16.6-88.6-74.2-180.8-139.4-255.2-153.2-174-285.6-311.4-322.2-349.6l672 0.2v-128.4l288 163.8-288 164.4z" />
<glyph unicode="&#xe95a;" glyph-name="dribbble" d="M512 922.667c-273.496 0-496-222.504-496-496s222.504-496 496-496 496 222.504 496 496-222.504 496-496 496zM839.94 693.935c59.006-72.092 94.738-163.914 95.67-263.91-13.968 2.954-154.036 31.364-295.004 13.636-11.504 28.082-22.362 52.786-37.234 83.228 156.642 63.954 227.636 154.964 236.568 167.046zM792.842 742.927c-7.62-10.854-71.394-96.572-222.042-153.038-69.424 127.552-146.37 232.336-158.080 248.016 134.352 32.386 275.932-2.54 380.122-94.978zM331.882 809.427c11.17-15.318 86.876-120.232 157.074-245.018-198.174-52.626-372.72-51.868-391.668-51.618 27.472 131.466 116.068 240.73 234.594 296.636zM88.34 426.021c0 4.332 0.086 8.644 0.216 12.946 18.536-0.38 223.84-3.026 435.412 60.292 12.128-23.736 23.714-47.83 34.348-71.898-153.198-43.15-292.388-167.054-361.062-284.612-67.666 75.108-108.914 174.458-108.914 283.272zM251.954 91.795c44.254 90.466 164.356 207.244 335.158 265.512 59.48-154.566 84.078-284.106 90.378-321.276-136.224-58.026-300.030-42.106-425.536 55.764zM748.714 74.817c-4.342 25.772-26.892 149.794-82.304 302.066 132.76 21.252 249.4-13.536 263.894-18.11-18.884-117.882-86.546-219.688-181.59-283.956z" />
<glyph unicode="&#xe95b;" glyph-name="dribbble-square" horiz-adv-x="896" d="M180.4 482.267c17.8 84.8 74.8 155.4 151.4 191.4 7.2-9.8 56-77.6 101.4-158-128-34-240.6-33.6-252.8-33.4zM629.2 630.667c-67.2 59.6-158.6 82.2-245.2 61.2 7.6-10.2 57.2-77.8 102-160 97.2 36.6 138.2 91.8 143.2 98.8zM280.2 210.667c81-63.2 186.6-73.4 274.6-36-4 24-20 107.6-58.4 207.2-110.2-37.6-187.6-112.8-216.2-171.2zM477.8 427.067c-6.8 15.6-14.4 31-22.2 46.4-136.4-40.8-268.8-39.2-280.8-38.8 0-2.8-0.2-5.6-0.2-8.4 0-70.2 26.6-134.2 70.2-182.8 44.4 75.8 134.2 155.8 233 183.6zM547.6 394.467c35.8-98.2 50.2-178.2 53-194.8 61.4 41.4 105 107.2 117.2 183.2-9.2 3-84.6 25.4-170.2 11.6zM507 491.267c9.6-19.6 16.6-35.6 24-53.6 91 11.4 181.4-6.8 190.4-8.8-0.6 64.6-23.6 123.8-61.8 170.2-5.8-7.8-51.6-66.4-152.6-107.8zM896 778.667v-704c0-53-43-96-96-96h-704c-53 0-96 43-96 96v704c0 53 43 96 96 96h704c53 0 96-43 96-96zM768 426.667c0 176.4-143.6 320-320 320s-320-143.6-320-320 143.6-320 320-320 320 143.6 320 320z" />
<glyph unicode="&#xe95c;" glyph-name="dropbox" horiz-adv-x="1056" d="M528.8 706.067l-264-168.6 264-168.6-264-168.6-264.8 170.2 264.6 168.6-264.6 167 264.6 168.6 264.2-168.6zM263.2 147.267l264 168.6 264-168.6-264-168.6-264 168.6zM528.8 370.467l264 168.6-264 167.2 262.6 168.4 264.6-168.6-264.6-168.6 264.6-168.4-264.6-168.6-262.6 170z" />
<glyph unicode="&#xe95d;" glyph-name="drupal" horiz-adv-x="896" d="M639 709.267c-44.4 28-87 39-129.4 67-26 17.6-62.6 60-93 96.6-5.4-58.6-23-82.4-44-99-42.6-34-69.6-44.4-107-64.6-31.6-16.6-201.6-133.6-201.6-351.6 0-218.4 183.6-379 387.6-379 203.4 0 380.4 148 380.4 372 0 224.6-166 342-193 358.6zM644 58.067c-40.2-40.2-180.2-57.4-233.4-8.4-9.6 9.6 0.6 24 13 24 0 0 34-26.6 103-26.6 54 0 92 15.4 109 28 12.2 9.2 16.8-8.6 8.4-17zM535 163.267c17.4 7.2 58 7.6 73.6-2.6 8.2-5.6 32.2-37.6 12.4-47.4-16.8-8.4-2.4 31.4-53 31.4-29.4 0-39-10.4-53.4-22-14-12-19.6-16-24.4-9.4-12 16.4 31.8 44.6 44.8 50zM720 128.667c-30.4 2-91 97.6-130 99-61.8 1.8-208.2-161.4-322.6-84-77.6 53.2-29.2 209.6 103.6 210.4 99 1 167.6-98 217-97 42.6 0.6 123.6 83.6 163.6 83.6 97.4 0 46.6-218.6-31.6-212z" />
<glyph unicode="&#xe95e;" glyph-name="dyalog" horiz-adv-x="832" d="M0 874.667v-238.4h128v110.4h214.4c226.8 0 361.6-160.4 361.6-319.8 0-152.2-117.2-320.2-361.6-320.2h-342.4v-128h342.4c321.4 0 489.6 225.4 489.6 448.2 0 117.4-44.2 226.8-124.6 308.6-89.6 91.2-216 139.2-365 139.2h-342.4z" />
<glyph unicode="&#xe95f;" glyph-name="earlybirds" horiz-adv-x="960" d="M626.4 843.667c2.4 26 42.6 28 73.2 17.4 1.8-0.6 52.4-19.4 38-30.4-55.8 14.8-112.8-36.4-111.2 13zM224.4 829.867c61.4 16.2 124-40 122.2 14.2-2.6 28.4-46.8 30.6-80.4 19.2-2-0.6-57.4-21-41.8-33.4zM638.8 618.667c-17.6 0-32-14.4-32-32s14.4-32 32-32 32 14.4 32 32-14.4 32-32 32zM319.4 618.667c-17.6 0-32-14.4-32-32s14.4-32 32-32 32 14.4 32 32-14.4 32-32 32zM956.4 292.267c-19.8-48-81.4-22-127.8 2.4-27-138.2-116.2-222.8-252.6-248.4 0.6-1.8-4 0.2 48-2 67.2-2.8 127.6 6.2 194.8 16-39.6 27.6-22.8 74.2-19.6 76.2 2.8 1.8 29.4-3.4 43.2-23 17.2 25 56.8 29.6 60.4 27.2 3.2-2.2 13.2-41.8-13.8-69.2 9.4 1.8 16.4 3.2 19.6 4.2 5.2 1.6 35.4-22.6 6.2-26.6-28.6-4.6-45.2-10.2-94.2-21.6-91.8-21.4-171.8-23.6-235.4-25.6l2-23.2c7.6-36.2-46.8-48.6-55.2-12.4 1.6-35.8-54.2-43.6-56.8 2l-1-10.6c-1.4-36.8-56.8-35.8-56.6 1.2-15-27-56.2-13.6-52.8 17l2.4 24.8c-73.4-1.8-119.4-6.2-123.6-6.2-41.8 0-41.8 63.2 0 63.2 4.8 0 55.4-2.6 126.4-5.6-122.2 31-207.4 110-229.8 236.4-50-25.6-115-53.6-136.4-1.6-21 50.8 43 85.2 133.6 146.8 1.4 13.2 3.2 26.6 5.4 39.6-28.8 39.2-23.2 72.6-32.2 120.8-33.6-4.8-46.4 18.2-47.2 46.2 0.6 14.6 4.2 29.8 4.8 30.8 2.2 3.6 20.2 4 25.4 5.2 12 63.4 101.2 66.4 181.8 69 39.4 43.6 90.4 83 161.8 96.6-30.6 38.8-6.8 79.8-4.8 80.8 3.4 1.6 42.4-8.6 52.6-46.4 10.4 17.6 36.6 22.8 39.2 21.4 2.2-1.2 12.8-30-9.8-51.8 80.6-7 144.4-49.4 192-101.4 72.2-3 143.6-11.8 154.2-68 5.4-1.2 23.2-1.6 25.4-5.2 0.6-1 4.2-16.2 4.8-30.8-1-27.8-13.6-50.8-47.2-46.2-6.4-34.6-5.4-65.8-17.4-95.4 4.8-23.4 8-47.6 9.6-72.8 74-50.8 140.6-85 120.6-133.8zM414.8 618.867c1.8 88-75.8 84.4-157.2 80.6-43.4-2-77.8-3.8-91-27.8-22.8-41.8 11.8-185.8 46.4-202.4 19.6-9.4 146.8-15.8 172.6 14.2 16.4 18.8 30 98.8 29.2 135.4zM518.8 502.267c-8.6 24.8-12 60.2-30.6 65.4-4 1-18 1-22 0-20-5.6-21.6-44.2-34-74.4 30.8 0 38.6-19.4 47.4-19.4 8.6 0 12.6 22.6 39.2 28.4zM790.2 671.667c-13.2 24.2-49.6 25.8-93 27.8-80.4 3.8-156.4 7.6-154.6-80.6-1-36.6 10-116.6 26.4-135.6 26-29.8 153.2-23.6 172.6-14.2 31.6 15.2 73 157.8 48.6 202.6z" />
<glyph unicode="&#xe960;" glyph-name="ebay" horiz-adv-x="1280" d="M810.4 411.067c-58.2-1.8-94.4-12.4-94.4-50.6 0-24.8 19.8-51.6 70-51.6 67.4 0 103.2 36.8 103.2 96.8v6.6c-23.6 0-52.6-0.2-78.8-1.2zM953.4 331.667c0-18.6 0.6-37.2 2-53.6h-59.6c-1.6 13.8-2.2 27.2-2.2 40.4-32.2-39.6-70.6-51-123.8-51-79 0-121.2 41.8-121.2 90 0 70 57.6 94.6 157.2 96.8 27.4 0.6 58 0.8 83.4 0.8v6.8c0 46.8-30 66-82 66-38.6 0-67.2-16-70-43.6h-67.4c7.2 68.8 79.4 86.2 143 86.2 76.2 0 140.6-27 140.6-107.6v-131.2zM255.4 445.267c-4.6 109.4-175 113.2-188.8 0h188.8zM65.4 402.467c7-116.6 158.4-114.8 182.4-43.2h66.2c-12.8-68.8-86-92.2-148.8-92.2-114.4 0-165 63-165 148 0 93.6 52.4 155.2 166 155.2 90.6 0 156.8-47.4 156.8-150.8v-17h-257.6zM487.4 311.067c59.6 0 100.4 43 100.4 107.6 0 64.8-40.8 107.6-100.4 107.6-59.2 0-100.4-42.8-100.4-107.6 0-64.6 41.2-107.6 100.4-107.6zM323 683.067h64.2v-161.2c31.4 37.4 74.8 48.4 117.4 48.4 71.4 0 150.8-48.2 150.8-152.4 0-87.2-63-150.8-152-150.8-46.6 0-90.2 16.6-117.4 49.8 0-13.2-0.8-26.4-2.2-39h-63c1 20.4 2.2 45.6 2.2 66.2v339zM1280 559.667l-198.4-389.6h-71.8l57 108.2-149.2 281.4h75l109.8-219.8 109.6 219.8h68z" />
<glyph unicode="&#xe961;" glyph-name="edge" d="M51.428 482.341c0.222 0.324 0.46 0.646 0.684 0.97-0.042-0.324-0.090-0.646-0.13-0.97h-0.554zM972.572 451.325c0 88.064-15.508 168.93-57.602 244.81-81.974 146.774-227.146 226.53-397.184 226.53-279.862 0.554-436.552-210.426-465.674-439.356 84.858 122.624 234.146 242.752 440.75 249.932 0 0 219.332 0 198.838-209.914h-351.706c12.738 74.772 37.108 117.972 68.678 157.852-150.096-69.786-243.7-192.192-241.484-376.63 1.66-142.896 100.248-289.672 241.486-343.952 166.714-63.694 385.552-14.4 480.264 42.648v208.808c-161.728-112.988-541.742-121.85-544.51 135.144h628.146v104.128z" />
<glyph unicode="&#xe962;" glyph-name="elementor" horiz-adv-x="896" d="M851.2 874.667h-806.4c-24.8 0-44.8-20-44.8-44.8v-806.4c0-24.8 20-44.8 44.8-44.8h806.4c24.8 0 44.8 20 44.8 44.8v806.4c0 24.8-20 44.8-44.8 44.8zM328.6 227.667h-79.6v398h79.6v-398zM647.2 227.667h-239v79.6h239v-79.6zM647.2 386.867h-239v79.6h239v-79.6zM647.2 546.267h-239v79.6h239v-79.6z" />
<glyph unicode="&#xe963;" glyph-name="ember" horiz-adv-x="1280" d="M1279.8 429.467c-2.2 21.4-21.4 13.6-21.4 13.6s-31.2-24.2-58.6-21.4c-27.4 2.6-18.8 64-18.8 64s6 56.2-10.2 60.8c-16.2 4.8-36-14.6-36-14.6s-24.8-27.4-36.6-62.4l-3.2-1s3.8 61.2-0.6 75.2c-3.2 7-32.8 6.4-37.6-6s-28.4-98.4-30-134.4c0 0-46.2-39.2-86.6-45.6s-50 18.8-50 18.8 109.6 30.6 105.8 118.2c-3.8 87.6-88.4 55.2-98 48-9.2-7-58.8-36.8-73.2-119.4-0.4-2.8-1.4-15-1.4-15s-42.4-28.4-66-36c0 0 66 111.2-14.6 161.8-36.6 22-65.6-24.2-65.6-24.2s109 121.4 85 224c-11.6 48.8-36 54.2-58.4 46.2-34-13.4-47-33.4-47-33.4s-44-64-54.2-159-25.2-210.2-25.2-210.2-21-20.4-40.4-21.4-10.8 57.4-10.8 57.4 15 89.2 14 104.2-2.2 23.2-19.8 28.4c-17.8 5.4-37-17.2-37-17.2s-51-77.4-55.4-89.2l-2.6-4.8-2.6 3.2s36 105.4 1.6 107c-34.4 1.6-57-37.6-57-37.6s-39.2-65.6-40.8-73l-2.6 3.2s16.2 76.4 12.8 95.2c-3.2 18.8-21 15-21 15s-22.6 2.6-28.4-11.8-27.4-110.6-30-141.4c0 0-56.4-40.4-93.6-40.8-37-0.6-33.4 23.6-33.4 23.6s136 46.6 98.8 138.4c-16.6 23.6-36 31-63.4 30.6-27.4-0.6-60.6-17.2-82.6-66.6-10.6-23.6-13.6-46-15.6-63 0 0-24.6-4.8-37.6 5.8s-20 0-20 0-22.4-28-0.2-36.6 56.2-12.2 56.2-12.2c3.2-15 12.4-39 39.2-59.4 40.4-30.6 117.6 2.6 117.6 2.6l31.8 17.6s1-29.2 24.2-33.4c23.2-4.2 32.8-2 73 95.8 23.6 50 25.2 47.2 25.2 47.2l2.6 0.6s-18.2-93.6-11.2-119.4c7-25.6 37.6-22.8 37.6-22.8s16.6-4.8 30 42.4c13.4 47.2 39.2 99.8 39.2 99.8h3.2s-11.2-96.2 6-127.4c17.2-31.2 61.8-10.6 61.8-10.6s31.2 15.6 36 20.4c0 0 37-31.6 89.2-25.8 116.6 23 158.2 51.8 158.2 51.8s20-48.8 82.2-53.4c71-5.4 109.6 37.2 109.6 37.2s-0.6-27 24.2-37.2c24.8-10.2 41.4 45.6 41.4 45.6l41.4 114.4h3.8s2.2-74.6 43-86.4 94 27.4 94 27.4 12.8 7 10.6 28.6zM123.8 418.867c1.6 64 43.6 91.8 58 78 14.6-14 9.2-44-18.2-62.8-27.4-19-39.8-15.2-39.8-15.2zM669.4 666.467s38.2 99.4 47.2 51-80-192.4-80-192.4c1 32.4 32.8 141.4 32.8 141.4zM715 389.667c-25.2-66-86.6-39.2-86.6-39.2s-7 23.6 12.8 89.8 66.6 40.4 66.6 40.4 32.4-24.8 7.2-91zM884.2 418.867s-6 21 16.2 61.2c22 40.4 39.2 18.2 39.2 18.2s18.8-20.4-2.6-51-52.8-28.4-52.8-28.4z" />
</font>
</defs>
</svg>
