<svg xmlns="http://www.w3.org/2000/svg" xmlns:xlink="http://www.w3.org/1999/xlink" width="1200" height="1200" viewBox="0 0 1200 1200"><circle stroke="none" fill="#2a41e8" r="48%" cx="50%" cy="50%"></circle><g transform="translate(600 600) scale(0.69 0.69) rotate(0) translate(-600 -600)" style="fill:#ffffff"><svg fill="#ffffff" xmlns="http://www.w3.org/2000/svg" data-name="Your Icon" viewBox="0 0 90.15 77.85" x="0px" y="0px"><title>stone</title><path d="M95.07,16.81a1.2,1.2,0,0,0-.13-0.18A1.41,1.41,0,0,0,94.28,16a1.15,1.15,0,0,0-.17-0.12,0.9,0.9,0,0,1-.58,0l-7.58,1.71-6.51-6.13s-0.06,0-.09,0a1.17,1.17,0,0,0-.44-0.17,1.27,1.27,0,0,0-.35-0.13,1.17,1.17,0,0,0-.14,0,1.12,1.12,0,0,0-.11,0L39.22,18.69,15,19.1a1.13,1.13,0,0,0-.15.06,1.18,1.18,0,0,0-.16,0s0,0-.06,0a1.2,1.2,0,0,0-.27.19,1.13,1.13,0,0,0-.33.27,1.16,1.16,0,0,0-.14.17s0,0,0,0L5,39.45a1.32,1.32,0,0,0,0,.25,1.12,1.12,0,0,0,0,.47,1.14,1.14,0,0,0,0,.27L11.2,57.23,9.42,66.35s0,0,0,0v0a1.3,1.3,0,0,0,.12.49,1.28,1.28,0,0,0,.11.44s0,0,0,0h0l15.67,21a1.12,1.12,0,0,0,.11.05,1.17,1.17,0,0,0,.15.17,1.26,1.26,0,0,0,.76.29h0.17l29.29-3.71A1.16,1.16,0,0,0,56.13,85a1.19,1.19,0,0,0,.46-0.26s0.06,0,.08,0h0L88.85,43.26s0,0,0,0A1.22,1.22,0,0,0,88.93,43a1.18,1.18,0,0,0,.16-0.24l6-25.37a1.13,1.13,0,0,0,0-.28A1.15,1.15,0,0,0,95.07,16.81ZM7.66,40.36l7.88-7.17L12.11,52.25ZM56,74.27L33.28,53.14l51-8.75ZM66.43,24.72L85,41.64,32.27,50.7l8-29.29ZM30.06,49L19.32,30.28l18.07-8ZM28.53,51.5L14.17,55.34l4-22ZM69.66,24.17l14.76-3.61,1.8,18.7Zm1.68-3.07,7.22-7,4.39,4.13Zm-4.79,1-19-2.42,27-5.26ZM18.35,27.88l-1.66-6.23L33,21.38ZM14.7,24.22l1.34,5L9.89,34.84Zm-1,33.93L24,55.37,12.58,63.64ZM30.38,54L53.67,75.63,26.81,86.07l-14.3-19.2ZM54.67,78l-0.25,4.77L36.61,85Zm2.66-1.39,13.18-14L57.16,79.88Zm31-42.06L87,20l5.12-1.15Z" transform="translate(-4.93 -11.07)"></path></svg></g></svg>
